<svg id="Layer_1" data-name="Layer 1" xmlns="http://www.w3.org/2000/svg" viewBox="0 0 23.8 23.8"><defs><style>.cls-1{fill:#fff}.cls-2{fill:#e0b624}.cls-5{fill:#8f5927}.cls-6{fill:#b3b3b3}.cls-7{fill:#00833e}.cls-8{fill:#c3002f}.cls-11{fill:#2e2a25}</style></defs><circle class="cls-1" cx="11.897" cy="11.898" r="11.897"/><path class="cls-2" d="M12 .1A11.9 11.9 0 1 0 23.9 12 11.911 11.911 0 0 0 12 .1zm-.028 23.6A11.7 11.7 0 1 1 23.674 12a11.712 11.712 0 0 1-11.699 11.7z" transform="translate(-.1 -.1)"/><path d="M11.995.549a11.468 11.468 0 1 0 11.467 11.468A11.468 11.468 0 0 0 11.995.549zm-.023 20.523A9.032 9.032 0 1 1 21 12.04a9.031 9.031 0 0 1-9.028 9.032z" transform="translate(-.1 -.1)" fill="#0d2240"/><path d="M13.553 6.464a.85.85 0 0 0-.832-1.226.851.851 0 0 0-1.5 0 .85.85 0 0 0-.69 1.307.85.85 0 0 0 .7 1.342.851.851 0 0 0 1.524-.087.85.85 0 0 0 .8-1.336z" transform="translate(-.1 -.1)" fill="#67b2e8"/><path class="cls-1" d="M11.189 6.169l.059.192h.202l-.143.119.064.217-.173-.119-.187.114.074-.202-.158-.129h.197l.065-.192zM12.613 6.169l.059.192h.202l-.143.119.064.217-.172-.119-.188.114.074-.202-.158-.129h.197l.065-.192zM12.979 6.768l.06.192h.202l-.143.119.064.217-.173-.119-.187.114.074-.203-.158-.128h.197l.064-.192zM12.292 6.768l.06.192h.202l-.143.119.064.217-.173-.119-.187.114.074-.203-.158-.128h.197l.064-.192zM11.582 6.768l.059.192h.202l-.143.119.064.217-.172-.119-.188.114.074-.203-.158-.128h.198l.064-.192zM10.907 6.768l.059.192h.202l-.143.119.064.217-.172-.119-.188.114.074-.203-.158-.128h.198l.064-.192zM11.901 7.346l.059.192h.202l-.143.119.064.217-.172-.119-.188.114.074-.203-.158-.128h.197l.065-.192zM12.94 5.555l.06.193h.202l-.143.118.064.217-.173-.118-.187.113.074-.202-.158-.128h.197l.064-.193zM12.273 5.555l.059.193h.202l-.143.118.064.217-.173-.118-.187.113.074-.202-.158-.128h.197l.065-.193zM11.599 5.555l.059.193h.202l-.143.118.064.217-.172-.118-.188.113.074-.202-.158-.128h.198l.064-.193zM10.92 5.555l.059.193h.202l-.143.118.064.217-.172-.118-.188.113.074-.202-.158-.128h.198l.064-.193zM11.901 4.992l.059.192h.202l-.143.119.064.217-.172-.119-.188.114.074-.202-.158-.129h.198l.064-.192zM11.901 6.169l.059.192h.202l-.143.119.064.217-.172-.119-.188.114.074-.202-.158-.129h.198l.064-.192z"/><path class="cls-5" d="M11.3 11.583a1.2 1.2 0 0 0-.3.258c-.071.09-.163.255-.187.291a.209.209 0 0 0-.024.1s-.062-.028-.135.069a1.846 1.846 0 0 0-.25.318l3.257.013a.951.951 0 0 0-.115-.318 2.15 2.15 0 0 1-.167-.294c-.085.071-.221.083-.382-.171a1.132 1.132 0 0 1-.052-.181c-.03.194-.043.442-.183.442s-.223-.339-.247-.4a.855.855 0 0 1-.087.31c-.04.066-.025.1-.133.1-.066.005-.113-.139-.113-.139a.81.81 0 0 1-.089-.235s-.268.423-.411.368.041-.494.041-.494c-.167.262-.474.479-.547.442s.014-.243.028-.3a1.577 1.577 0 0 1 .096-.179z" transform="translate(-.1 -.1)"/><path class="cls-2" d="M10.866 10.657a1.612 1.612 0 0 1-.061-.245.335.335 0 0 1 .141-.256.99.99 0 0 1 .42-.144.668.668 0 0 1 .17-.123.616.616 0 0 0 0 .2c.017.037.2.364.2.364s.132.141.087.152c-.1.027-.176 0-.295.1l-.042-.176a1.693 1.693 0 0 0-.394-.047c-.049.029-.017.087-.017.087s-.167-.006-.209.088zM13.131 11.152a3.391 3.391 0 0 0 .122.6.3.3 0 0 0 .3.172c.17.006.263.023.312-.037s0-.256 0-.323.032-.292.093-.34a.552.552 0 0 0 .192-.326 2.384 2.384 0 0 1 .032-.435s.069-.111.054-.163c-.022-.079-.224-.1-.255-.141s-.175-.1-.054-.208.316-.3.569-.5c.231-.176.559-.39.916-.622.175-.113 1.1-.484 1.151-.577a.507.507 0 0 0 .06-.211c0-.085-.108-.161-.041-.2s.309-.214.381-.272c.051-.041.214-.177.211-.263s-.12-.2-.123-.274a.389.389 0 0 0-.115-.309.292.292 0 0 0-.285-.1c-.1.037-.278.147-.187.244a.406.406 0 0 1 .119.346c-.037.079-.307.139-.41.169a.586.586 0 0 0-.367.215c-.058.1.19.1.214.165s-.2.13-.275.155-.8.392-.931.465-.744.52-.744.52a7.5 7.5 0 0 0-.55.533c-.134.134-.411.382-.357.425s.243.176.292.224.207.28.268.353.112-.049.155-.018a1.281 1.281 0 0 1 .128.13 4.03 4.03 0 0 0-.3.3c-.149.181-.113.671-.125.792 0 0-.262-.266-.293-.309s-.157-.18-.157-.18z" transform="translate(-.1 -.1)"/><path class="cls-2" d="M11.485 10.522l-.394-.047a1.247 1.247 0 0 1 .013.47 2.973 2.973 0 0 0-.242.559.5.5 0 0 0 .105.378l.316-.3a1.415 1.415 0 0 1 .168-.5.948.948 0 0 0 .062-.327 1.987 1.987 0 0 0-.028-.233zM10.968 10.619s-.026.282-.038.355-.232.14-.274.164a.623.623 0 0 1-.353.082c-.191-.064-.181-.2-.188-.3a.381.381 0 0 0-.193-.269.306.306 0 0 1-.152-.169c-.03-.055-.123-.221.029-.27s.127-.018.152-.049.1-.143.1-.143a4.361 4.361 0 0 0-1.082-.92 7.105 7.105 0 0 0-1.159-.6c-.466-.187-.44-.258-.471-.374a.532.532 0 0 1 .043-.281c-.115-.024-.2-.133-.34-.217-.158-.1-.276-.3-.24-.356a1.2 1.2 0 0 0 .118-.342.381.381 0 0 1 .256-.309c.109-.042.391.14.284.243-.063.06-.1.138-.117.357a1.633 1.633 0 0 0 .183.1c.073.03.723.144.593.329 0 0-.149.031-.173.1 0 0-.177.019.286.177A6.12 6.12 0 0 1 9.953 8.94a7.112 7.112 0 0 1 .812.807c.094.116-.1.184-.181.245a2.128 2.128 0 0 0-.221.223 1.594 1.594 0 0 0-.127.218.718.718 0 0 1 .22.376c.018.115.087.171.172.134.018-.055-.086-.48.147-.588a1.026 1.026 0 0 0 .093.308.069.069 0 0 1 .1-.044z" transform="translate(-.1 -.1)"/><path class="cls-6" d="M11.052 17.1a4.323 4.323 0 0 0-.467.366l.473.049-.23.3.527-.159a2.942 2.942 0 0 0-.224.387 4.046 4.046 0 0 1 .426-.181 4.352 4.352 0 0 0-.165.436c.109-.091.428-.286.428-.286a2.058 2.058 0 0 0-.033.269c.061.125.385.115.47.013a1.644 1.644 0 0 0-.02-.294l.43.232-.151-.394.459.217-.19-.318.525.111-.276-.29.585-.027s-.546-.413-.594-.458c-.087.054-.249-.059-.285-.081.109.171.138.294.065.363s-.276-.114-.276-.114a.3.3 0 0 1-.055.375c-.085.046-.267-.2-.279-.261.024.182-.041.394-.162.428s-.166-.078-.191-.18a.792.792 0 0 1-.005-.241c-.121.181-.163.263-.284.229s-.084-.212-.072-.246.046-.161.046-.161c-.169.171-.23.214-.3.157s.021-.325.021-.325a1.777 1.777 0 0 0-.196.084z" transform="translate(-.1 -.1)"/><path class="cls-7" d="M7.744 17.718a1.716 1.716 0 0 1 .224.461 1.64 1.64 0 0 1 0 .616.323.323 0 0 0 .256.338.528.528 0 0 1 .216.14c.033.044.141.081.141-.045a8.247 8.247 0 0 0-.281-1.085 1.436 1.436 0 0 0-.367-.62 1.4 1.4 0 0 1-.189.195zM6.665 15.644c.044-.066.131-.29.207-.345a2.8 2.8 0 0 1 .344-.2c.077-.033.282-.112.412-.184a2.759 2.759 0 0 1-.11.293c-.033.055-.1.261-.168.426s-.478.335-.567.418a.349.349 0 0 0-.038.214.377.377 0 0 0 .176.222l-.221.224a.7.7 0 0 0-.211-.188l-.05.032a2.629 2.629 0 0 1-.016.652c-.044.351-.434.667-.565.788 0-.043-.013-.177-.013-.247a2.19 2.19 0 0 1 .164-.984 2.115 2.115 0 0 0-.222.273 2.051 2.051 0 0 0-.077.341.718.718 0 0 1-.448.111 1.9 1.9 0 0 0 .219-.5c.043-.16.523-.445.588-.478a.208.208 0 0 1 .054-.132h-.132c-.113.065-.343.263-.5.347a1.046 1.046 0 0 1-.644-.012 3.5 3.5 0 0 1 .224-.314 2.866 2.866 0 0 1 .442-.314 1.783 1.783 0 0 0-.279.038 1.976 1.976 0 0 0-.266.162 1.27 1.27 0 0 1-.485-.27c.189-.012.312-.146.418-.177a2.642 2.642 0 0 1 .411-.028l.076-.1s-.014-.062-.159-.039a1.307 1.307 0 0 1-.646-.114c-.066-.033-.265-.206-.4-.2a1.43 1.43 0 0 1 .413-.173 3.078 3.078 0 0 1 .632.08 1.728 1.728 0 0 0-.277-.165 1.624 1.624 0 0 0-.544-.038c-.114 0-.289-.228-.366-.316a1.371 1.371 0 0 1 .572-.135 2.134 2.134 0 0 1 .406.159c.055 0-.014-.166-.014-.166-.207-.024-.16-.192-.16-.192a.886.886 0 0 1-.718-.5 2.381 2.381 0 0 1-.2-.628 1.568 1.568 0 0 1 .164.184c.077.11.222.12.408.218a1.043 1.043 0 0 1 .374.342.416.416 0 0 0-.136-.29 1.56 1.56 0 0 1-.238-.667 2.273 2.273 0 0 1 .23-.7c0 .055.047.131.223.351a1.033 1.033 0 0 1 .11.623l-.022.34a2.454 2.454 0 0 0 .124-.273 1.816 1.816 0 0 0 .021-.417.9.9 0 0 1 .371-.347 1.658 1.658 0 0 1-.106.873l-.235.3a1.973 1.973 0 0 0-.1.332s.07-.008.088-.056a2.1 2.1 0 0 1 .579-.618 1.838 1.838 0 0 1-.035.7 2.674 2.674 0 0 1-.387.444.239.239 0 0 1 .045.166.144.144 0 0 1-.115.094.244.244 0 0 0 .072.175s.123-.018.156.037a.21.21 0 0 1-.025.162l.076.144a.2.2 0 0 1 .168.017l-.024-.159a1.008 1.008 0 0 1 .19-.643c.1-.121.226-.261.314-.348a4.728 4.728 0 0 1 .068.961 1.272 1.272 0 0 1-.15.379l-.068.187a.216.216 0 0 0 .1.2.244.244 0 0 1 .226-.049 4.255 4.255 0 0 1-.1-.531 1.137 1.137 0 0 1 .277-.564 2.86 2.86 0 0 0 .293-.4c0 .044.061.486.054.63 0 0-.228.216-.246.329a1.57 1.57 0 0 0-.006.233z" transform="translate(-.1 -.1)"/><path class="cls-2" d="M16.187 17.125a.511.511 0 0 0 .032.249c.041.055.134.1.209.181s.147.21.231.228a.3.3 0 0 0 .21-.051.326.326 0 0 0 .092-.26s.184 0 .24-.067a.331.331 0 0 0 .015-.258.26.26 0 0 0 .18-.054.157.157 0 0 0 .016-.2 2.556 2.556 0 0 0-.354-.392.427.427 0 0 0-.3-.084.3.3 0 0 0-.181-.21.351.351 0 0 0-.333.049.313.313 0 0 0-.064.366c0 .011.039.034.044.047a9.86 9.86 0 0 1-.613.013l-.425.1.314.362c.128-.003.5-.007.687-.019zM8.641 17.141l.314-.362-.425-.1c-.291 0-.513 0-.613-.013.006-.013.04-.036.044-.047a.313.313 0 0 0-.064-.366.351.351 0 0 0-.333-.049.3.3 0 0 0-.181.21.427.427 0 0 0-.3.084 2.556 2.556 0 0 0-.354.392.157.157 0 0 0 .016.2.26.26 0 0 0 .18.054.331.331 0 0 0 .015.258c.056.066.24.067.24.067a.326.326 0 0 0 .092.26.3.3 0 0 0 .21.051c.084-.018.159-.152.231-.228s.167-.126.209-.181a.511.511 0 0 0 .032-.249c.183.015.56.019.687.019z" transform="translate(-.1 -.1)"/><path class="cls-5" d="M13.844 15.483a1.142 1.142 0 0 1 .581.123.677.677 0 0 1 .228.207.878.878 0 0 1 .438.209c.17.17.178.253.178.253a1.533 1.533 0 0 1 .293.217.357.357 0 0 1 .106.158c0 .19-.443.186-.443.186a.481.481 0 0 1 .259.307c.036.121-.258.182-.368.17a1.732 1.732 0 0 1-.2-.036.388.388 0 0 1-.174.036 1.285 1.285 0 0 1-.443-.152.921.921 0 0 1-.553-.057 1.63 1.63 0 0 1-.362-.224l-.163-.167c.291.012.44.006.536-.094.134-.139.07-.456.082-.675s.005-.461.005-.461zM12.842 16.713s.269.249.166.357c-.083.087-.242-.05-.242-.05s.122.295.02.363c-.072.048-.221-.105-.221-.105 0 .19 0 .326-.091.377s-.279-.278-.279-.278.016.492-.214.45c-.119-.022-.166-.412-.166-.412s-.136.265-.262.214c-.177-.072-.01-.49-.01-.49s-.178.3-.319.224c-.106-.053 0-.3 0-.3s-.17.066-.231-.016c-.041-.055.182-.337.182-.337.291.015 1.667.003 1.667.003zM10.271 15.483a1.142 1.142 0 0 0-.581.123.677.677 0 0 0-.228.207.878.878 0 0 0-.438.209c-.17.17-.178.253-.178.253a1.533 1.533 0 0 0-.293.217.357.357 0 0 0-.106.158c0 .19.443.186.443.186a.481.481 0 0 0-.259.307c-.036.121.258.182.368.17a1.732 1.732 0 0 0 .2-.036.388.388 0 0 0 .174.036 1.285 1.285 0 0 0 .443-.152.921.921 0 0 0 .553-.057 1.63 1.63 0 0 0 .362-.224l.163-.167c-.291.012-.44.006-.536-.094-.134-.139-.07-.456-.082-.675s-.005-.461-.005-.461zM10.264 12.8a.716.716 0 0 1-.727-.2 1.2 1.2 0 0 1-.34-.854c0-.269.043-.256.214-.451s.268-.255.293-.451-.171-.387-.426-.7A6.181 6.181 0 0 0 8.139 9.1a8.948 8.948 0 0 0-1.179-.784 6.458 6.458 0 0 0-.848-.4 3.869 3.869 0 0 0-.87-.173c-.11 0-.205 0-.083.13a5.112 5.112 0 0 0 .742.516 1.144 1.144 0 0 1 .2.147c-.232-.025-.426.041-.462.139s.24.307.338.38a1.821 1.821 0 0 0 .295.16c-.183.049-.469.034-.457.168s.273.261.371.322a1.235 1.235 0 0 0 .315.1.467.467 0 0 0-.374.208c-.024.086.279.288.45.362-.2.061-.4.145-.384.267s.312.272.434.308c-.159.061-.477.152-.453.262s.359.273.481.322c-.17.067-.451.234-.435.337.026.162.446.206.532.231-.183.1-.361.305-.336.415s.47.146.567.146c-.115.128-.27.407-.221.468s.3.056.4.019a.47.47 0 0 1 .176-.032s-.28.322-.17.53c.034.063.516-.053.589-.09-.086.171-.183.541-.134.589A1.7 1.7 0 0 0 8.245 14c-.073.208-.151.52-.066.569s.4-.094.512-.192a.6.6 0 0 0 .064.5c.073.049.332-.063.454-.21.012.245.019.491.129.541s.307-.266.392-.339c.037.232.143.43.233.451.159.037.3-.29.3-.29zM13.837 12.8a.716.716 0 0 0 .727-.2 1.2 1.2 0 0 0 .34-.854c0-.269-.043-.256-.214-.451s-.268-.255-.293-.451.171-.387.426-.7A6.181 6.181 0 0 1 15.962 9.1a8.948 8.948 0 0 1 1.179-.782 6.458 6.458 0 0 1 .848-.4 3.869 3.869 0 0 1 .87-.173c.11 0 .205 0 .083.13a5.112 5.112 0 0 1-.742.516 1.144 1.144 0 0 0-.2.147c.232-.025.426.041.462.139s-.24.307-.338.38a1.821 1.821 0 0 1-.295.16c.183.049.469.034.457.168s-.273.261-.371.322a1.235 1.235 0 0 1-.315.1.467.467 0 0 1 .374.208c.024.086-.279.288-.45.362.2.061.4.145.384.267s-.312.272-.434.308c.159.061.477.152.453.262s-.359.273-.481.322c.17.067.451.234.435.337-.026.162-.446.206-.532.231.183.1.361.305.336.415s-.47.146-.567.146c.115.128.27.407.221.468s-.3.056-.4.019a.47.47 0 0 0-.176-.032s.28.322.17.53c-.034.063-.516-.053-.589-.09.086.171.183.541.134.589a1.7 1.7 0 0 1-.622-.149c.073.208.151.52.066.569s-.4-.094-.512-.192a.6.6 0 0 1-.064.5c-.073.049-.332-.063-.454-.21-.012.245-.019.491-.129.541s-.307-.266-.392-.339c-.037.232-.143.43-.233.451-.159.037-.3-.29-.3-.29z" transform="translate(-.1 -.1)"/><path class="cls-1" d="M13.539 16.707h-1.3a.079.079 0 0 0-.065.034l-.135.193-.137-.193a.079.079 0 0 0-.065-.033h-1.3a.3.3 0 0 1-.3-.3v-3.745h3.6v3.747a.3.3 0 0 1-.298.297z" transform="translate(-.1 -.1)"/><path class="cls-8" d="M10.438 13.915h.279v2.68h-.279zM10.984 13.915h.279v2.68h-.279z"/><path class="cls-6" d="M19.462 15.128l-.006-.215-.156-.113.684-.189zM19.308 15.687v-.215l-.151-.12.691-.163zM18.476 15.978l-.015-.214-.16-.108.676-.218zM18.659 15.519l-.038-.211-.171-.09.649-.288zM18.872 15l-.056-.207-.178-.075.621-.345zM19.6 14.583l-.025-.213-.165-.1.664-.25zM19.021 14.479l-.073-.2-.183-.06.591-.393zM19.7 14.027l-.059-.206-.179-.073.617-.352zM19.645 13.5l-.086-.2-.187-.048.564-.432zM18.992 14.063l-.092-.194-.188-.042.551-.448zM19.007 13.53l-.1-.187-.191-.03.52-.484zM18.11 14.473l-.12-.178-.193-.013.477-.526zM18.019 13.925l-.137-.165-.193.006.422-.571z" transform="translate(-.1 -.1)"/><path class="cls-6" d="M15.794 18.955l-.087-.147-.165.043.28-.677.165-.043.086.146-.279.678zM15.504 18.543l-.06-.159-.17.013.392-.619.17-.014.06.16-.392.619zM14.924 18.581l-.033-.167-.169-.014.488-.546.17.014.033.167-.489.546zM14.58 18.174l.017-.169-.158-.063.626-.381.158.063-.017.169-.626.381z"/><path class="cls-8" d="M11.53 13.915h.279v2.68h-.279zM12.076 13.915h.279v2.68h-.279zM12.623 13.915h.279v2.68h-.279zM13.169 13.915h.279v2.68h-.279z"/><path d="M12.016 9.379H12a.507.507 0 0 1-.415-.262.493.493 0 0 1-.811-.28.517.517 0 0 1-.485-.068.5.5 0 0 1-.176-.473.491.491 0 0 1-.431-.21.5.5 0 0 1-.034-.493.51.51 0 0 1-.33-.343.487.487 0 0 1 .135-.476.494.494 0 0 1 .058-.849.5.5 0 0 1-.051-.489.5.5 0 0 1 .391-.284.5.5 0 0 1 .1-.476.517.517 0 0 1 .479-.152.485.485 0 0 1 .223-.41.478.478 0 0 1 .522 0 .5.5 0 0 1 .353-.315.489.489 0 0 1 .483.167.506.506 0 0 1 .5-.185.435.435 0 0 1 .349.319.56.56 0 0 1 .477-.035.448.448 0 0 1 .279.443.523.523 0 0 1 .44.094.456.456 0 0 1 .149.534.465.465 0 0 1 .405.258.511.511 0 0 1-.048.527.522.522 0 0 1 .284.376.486.486 0 0 1-.222.493.494.494 0 0 1 .143.506.517.517 0 0 1-.344.334.505.505 0 0 1-.032.5.542.542 0 0 1-.461.219.537.537 0 0 1-.211.474.492.492 0 0 1-.473.042.488.488 0 0 1-.3.364.526.526 0 0 1-.5-.09.5.5 0 0 1-.43.24zm-.4-.452l.034.079a.388.388 0 0 0 .73.02l.032-.062.051.048a.428.428 0 0 0 .443.111.393.393 0 0 0 .246-.347l.008-.076.068.035a.408.408 0 0 0 .429 0 .45.45 0 0 0 .162-.437l-.008-.067.067.008a.448.448 0 0 0 .426-.17.427.427 0 0 0 0-.45l-.034-.067.075-.009a.409.409 0 0 0 .325-.275.42.42 0 0 0-.162-.443l-.054-.048.062-.037a.392.392 0 0 0-.06-.74l-.1-.017.067-.071a.415.415 0 0 0 .082-.471.365.365 0 0 0-.382-.2l-.091.01.037-.084a.379.379 0 0 0-.488-.534l-.1.081.019-.124a.359.359 0 0 0-.208-.427.409.409 0 0 0-.43.069l-.081.108-.014-.134a.339.339 0 0 0-.282-.322.4.4 0 0 0-.425.2l-.039.076-.05-.069a.4.4 0 0 0-.422-.185.389.389 0 0 0-.293.306l-.015.085-.071-.057a.386.386 0 0 0-.464-.039.369.369 0 0 0-.168.377l.022.088-.087-.024a.432.432 0 0 0-.449.1.407.407 0 0 0-.055.432l.028.07h-.075a.389.389 0 0 0-.293.66l.044.053-.063.028a.411.411 0 0 0-.268.366.393.393 0 0 0 .219.358l.072.035-.06.056a.387.387 0 0 0 .159.7l.075.012-.038.066a.411.411 0 0 0 0 .443.4.4 0 0 0 .4.159l.075-.011-.015.074a.39.39 0 0 0 .566.467l.07-.035.006.078a.393.393 0 0 0 .271.359.385.385 0 0 0 .419-.123z" transform="translate(-.1 -.1)" fill="#ccc"/><path fill="#002d73" d="M10.14 12.52h3.57v1.384h-3.57z"/><path class="cls-11" d="M12.214 17.339l-.033.008v.067l.051-.012c-.003-.021-.011-.042-.018-.063zM12.641 16.876h.007l-.038-.043zM10.909 10.639c0 .005 0 .047-.007.1s-.009.134-.014.214a.716.716 0 0 1-.284.161.49.49 0 0 0 .037-.084 1.57 1.57 0 0 0 .018-.431.225.225 0 0 1 .122-.2l.018-.081-.019.008a.305.305 0 0 0-.191.279c0 .139.006.245 0 .32a.094.094 0 0 1-.055-.022.183.183 0 0 1-.046-.144.49.49 0 0 0-.211-.344v-.012a.218.218 0 0 0 .02-.034.738.738 0 0 1 .2-.26c.038-.028.078-.054.116-.079.131-.086.244-.16.2-.254a6.771 6.771 0 0 0-1.058-1.02 7.3 7.3 0 0 0-1.43-.833 19.117 19.117 0 0 0-.373-.146v-.002s.01-.03.09-.06H8.067a.106.106 0 0 0 .091-.1c0-.074-.079-.179-.455-.26a.726.726 0 0 1-.23-.08 1.918 1.918 0 0 1-.106-.061.687.687 0 0 1 .09-.284.126.126 0 0 0 .067-.12c0-.059-.036-.1-.116-.148a.386.386 0 0 0-.251-.062.29.29 0 0 0-.2.125.376.376 0 0 0-.049.081.5.5 0 0 0-.043.172.312.312 0 0 1-.039.136l-.017.035c-.066.134-.086.175-.014.279a1.949 1.949 0 0 0 .553.444.654.654 0 0 1-.017.036.354.354 0 0 0 .1.451c.016.009.06.028.134.061a10.529 10.529 0 0 1 1.352.68 4.832 4.832 0 0 1 1.1.909v.02c-.007.109-.159.156-.179.161a.136.136 0 0 0-.092.019.127.127 0 0 0-.064.146.4.4 0 0 0 .094.218.383.383 0 0 0 .132.1c.084.047.164.091.183.322a.292.292 0 0 0 .3.265.209.209 0 0 0 .121-.04l.015-.005c.092-.033.394-.149.42-.249l.006-.088.019-.28v-.018zm-1.171-.3h.005l.008-.013h-.006a.09.09 0 0 1 .037-.057c.039-.031.172.048.271.142l.027.022.035.028a.2.2 0 0 0 .077.021.091.091 0 0 0 .038-.008.438.438 0 0 1 .188.294.243.243 0 0 0 .07.195.166.166 0 0 0 .089.036l-.006.024a.565.565 0 0 1-.065.126.184.184 0 0 1-.191.047.21.21 0 0 1-.164-.2c-.022-.266-.121-.321-.217-.375a.339.339 0 0 1-.192-.273.041.041 0 0 0 0-.011h-.011zM7.9 7.757a.894.894 0 0 1-.316-.16.176.176 0 0 1-.052-.081.027.027 0 0 1 .014-.026.033.033 0 0 1 .017-.005.027.027 0 0 1 .018.008 1.2 1.2 0 0 0 .369.2.144.144 0 0 0-.05.064zm-.4-.319c-.041.038-.042.067-.033.085v.035c-.018.06-.05.169-.077.244a1.864 1.864 0 0 1-.52-.418c-.05-.072-.046-.08.019-.211l.017-.035a.371.371 0 0 0 .046-.16.384.384 0 0 1 .018-.1.539.539 0 0 0 .163.219 2.281 2.281 0 0 0 .335.226.9.9 0 0 0 .247.086c.391.085.4.184.4.2s-.02.033-.038.037h-.032a1.187 1.187 0 0 1-.436-.221.093.093 0 0 0-.116.014zm.011.182a.452.452 0 0 0 .038.033.53.53 0 0 0 .176.108c.158.059.479.183.591.229a7.1 7.1 0 0 1 1.416.825 6.885 6.885 0 0 1 1.038 1c.02.041-.075.1-.175.169a3.525 3.525 0 0 0-.118.08.749.749 0 0 0-.2.237 3.521 3.521 0 0 0-1.318-1.25A10.582 10.582 0 0 0 7.6 8.354a3.416 3.416 0 0 1-.127-.057.288.288 0 0 1-.078-.362 1.712 1.712 0 0 0 .105-.314zm-.328-.556l.044-.176a.267.267 0 0 0 .162.059.96.96 0 0 0-.066.22 1.419 1.419 0 0 1-.147-.102zm.062-.244a.414.414 0 0 1-.045-.045l-.014-.017L7.123 7a.32.32 0 0 1-.113-.2.153.153 0 0 1 .1-.122.223.223 0 0 1 .1-.029.372.372 0 0 1 .177.058c.072.04.082.067.082.088a.065.065 0 0 1-.044.065.166.166 0 0 1-.187-.038zm2.832 3.28a1.152 1.152 0 0 1 .131.224.3.3 0 0 1 .014.065c0 .01-.005.021-.013.025s-.041-.006-.054-.017l-.017-.016a.914.914 0 0 0-.2-.15.312.312 0 0 0 .139-.131zM17.13 7.145l-.017-.034a.312.312 0 0 1-.039-.136.5.5 0 0 0-.043-.172.366.366 0 0 0-.048-.079.291.291 0 0 0-.2-.126.386.386 0 0 0-.261.058c-.08.044-.115.089-.116.148a.126.126 0 0 0 .067.12.689.689 0 0 1 .09.284 2.372 2.372 0 0 1-.106.061.727.727 0 0 1-.23.08c-.376.081-.454.186-.455.26a.107.107 0 0 0 .091.1H15.888c.08.031.089.055.09.06v.007c-.1.037-.252.1-.373.146a7.3 7.3 0 0 0-1.43.833 6.771 6.771 0 0 0-1.058 1.02c-.046.094.067.168.2.254.038.025.077.051.116.079a.738.738 0 0 1 .2.26.212.212 0 0 0 .021.034.09.09 0 0 0 .046.062.118.118 0 0 0 .093 0h.017c.057-.006.114.049.143.08a.986.986 0 0 0-.35.408 1.436 1.436 0 0 0-.056.553v.1c-.115-.145-.375-.444-.377-.447l-.072-.083.014.11a4.647 4.647 0 0 0 .1.518.335.335 0 0 0 .231.246.092.092 0 0 0 .056-.006.858.858 0 0 0 .194.025.277.277 0 0 0 .165-.041.131.131 0 0 0 .054-.105.951.951 0 0 0-.014-.165.474.474 0 0 1 .112-.466c.168-.158.164-.241.158-.346a.613.613 0 0 1 .007-.156c.033-.177.053-.257.058-.276a.139.139 0 0 0 .025-.1.126.126 0 0 0-.067-.1.136.136 0 0 0-.092-.019c-.02-.006-.172-.052-.179-.161v-.02a4.832 4.832 0 0 1 1.1-.909 10.528 10.528 0 0 1 1.345-.688c.073-.032.117-.052.133-.061a.354.354 0 0 0 .1-.451c-.006-.01-.011-.022-.017-.036a1.949 1.949 0 0 0 .553-.444c.083-.105.066-.145-.004-.279zm-.764.348a.028.028 0 0 1 .036 0 .027.027 0 0 1 .014.027.177.177 0 0 1-.052.081.9.9 0 0 1-.316.159A.144.144 0 0 0 16 7.7a1.2 1.2 0 0 0 .366-.207zm-.141.268a.528.528 0 0 0 .175-.107.474.474 0 0 0 .039-.033 1.712 1.712 0 0 0 .11.314.288.288 0 0 1-.078.362 3.416 3.416 0 0 1-.127.057 10.582 10.582 0 0 0-1.354.693 3.521 3.521 0 0 0-1.318 1.25.749.749 0 0 0-.2-.237c-.04-.029-.08-.055-.118-.08-.1-.066-.195-.128-.175-.169a6.885 6.885 0 0 1 1.038-1 7.1 7.1 0 0 1 1.416-.825c.114-.041.434-.165.592-.225zm.344.042a4.335 4.335 0 0 1-.077-.244V7.523c.008-.018.008-.047-.033-.085a.094.094 0 0 0-.1-.01 1.167 1.167 0 0 1-.432.22.2.2 0 0 1-.034 0c-.018 0-.038-.017-.038-.037s.012-.11.4-.2a.9.9 0 0 0 .247-.086 2.281 2.281 0 0 0 .335-.226A.539.539 0 0 0 17 6.88a.384.384 0 0 1 .018.1.372.372 0 0 0 .046.16l.017.035c.065.132.069.139.019.211a1.865 1.865 0 0 1-.531.414zM16.82 7l-.062-.244-.014.017-.039.047a.166.166 0 0 1-.185.045.065.065 0 0 1-.044-.065c0-.021.01-.048.082-.088.158-.088.223-.057.281-.029a.153.153 0 0 1 .1.122.32.32 0 0 1-.119.195zm-.1-.113l.044.176a1.419 1.419 0 0 1-.14.1.96.96 0 0 0-.066-.22.267.267 0 0 0 .165-.054zm-2.988 3.431a1.153 1.153 0 0 1 .131-.225.312.312 0 0 0 .138.132.844.844 0 0 0-.216.172.081.081 0 0 1-.054.011c-.007 0-.011-.015-.013-.025a.3.3 0 0 1 .017-.062zm.147.09c.1-.1.229-.181.274-.144a.084.084 0 0 1 .038.073.1.1 0 0 1-.014.039 1.261 1.261 0 0 1-.165.132.343.343 0 0 0-.13-.098zm.225.436c.005.1.009.157-.137.293a.535.535 0 0 0-.132.524.9.9 0 0 1 .013.153.066.066 0 0 1-.027.054.4.4 0 0 1-.247.017.437.437 0 0 0 .032-.086 1.586 1.586 0 0 0 .01-.3 1.39 1.39 0 0 1 .051-.526.92.92 0 0 1 .352-.4l.018-.011h.007a.8.8 0 0 0 .1-.065l-.034.17a.672.672 0 0 0-.003.179zm-.589 1a.06.06 0 0 1-.058.033.271.271 0 0 1-.18-.2 3.828 3.828 0 0 1-.08-.4c.262.3.334.4.347.42a.24.24 0 0 1-.026.152zM11.455 10.216a.047.047 0 0 1 .005-.058c.029-.021.123.076.123.076a.5.5 0 0 1-.128-.018z" transform="translate(-.1 -.1)"/><path d="M12.4 10.2a.72.72 0 0 1 .161.108.2.2 0 0 0-.134-.166.771.771 0 0 0-.33 0 .423.423 0 0 1-.114-.007.263.263 0 0 0-.162.02s.114.037.153.043c.032.034.216.147.292.111s.037-.076-.009-.12a.4.4 0 0 1 .143.011z" transform="translate(-.1 -.1)" fill-rule="evenodd" fill="#2e2a25"/><path class="cls-11" d="M12.565 17.453v.025l.083.116zM7.616 8.217v-.012a.074.074 0 0 0 .031 0 .03.03 0 0 0 .023-.023l.08-.226a.029.029 0 0 0 0-.032.08.08 0 0 0-.027-.016v-.012L8 8l-.033.094h-.012a.106.106 0 0 0-.009-.073.147.147 0 0 0-.074-.045.059.059 0 0 0-.03-.005q-.008 0-.012.016l-.03.103a.081.081 0 0 0 .061.005.116.116 0 0 0 .039-.047h.012l-.056.157h-.012a.1.1 0 0 0 0-.063.083.083 0 0 0-.051-.036l-.04.113a.024.024 0 0 0 0 .023.068.068 0 0 0 .03.017.128.128 0 0 0 .156-.037h.013l-.054.09zM8.1 8.416a.054.054 0 0 0 .035 0q.011 0 .021-.029l.085-.2q.011-.026.006-.036a.066.066 0 0 0-.027-.022v-.012l.151.064a.194.194 0 0 1 .083.057.076.076 0 0 1 0 .078.085.085 0 0 1-.03.037.092.092 0 0 1-.054.015.161.161 0 0 1-.047-.008l-.064-.025-.036.085a.049.049 0 0 0-.005.037.058.058 0 0 0 .029.022v.012L8.1 8.427zm.235-.079q.028 0 .047-.05a.111.111 0 0 0 .01-.055.047.047 0 0 0-.032-.032.049.049 0 0 0-.021-.005.014.014 0 0 0-.011.01l-.052.122a.134.134 0 0 0 .06.009zM8.395 8.54a.076.076 0 0 0 .029.009.03.03 0 0 0 .027-.02l.107-.214a.029.029 0 0 0 0-.032.08.08 0 0 0-.025-.019l.006-.011.159.08-.006.011a.082.082 0 0 0-.041-.011q-.013 0-.026.028l-.1.209a.023.023 0 0 0 0 .023.074.074 0 0 0 .028.02.142.142 0 0 0 .078.017.155.155 0 0 0 .082-.044l.013.007-.068.091-.264-.132zM9 8.5l-.006.011a.072.072 0 0 0-.043-.011q-.013 0-.027.026l-.085.142a.147.147 0 0 0-.022.055.063.063 0 0 0 .035.066.08.08 0 0 0 .09 0 .15.15 0 0 0 .043-.05l.077-.13a.051.051 0 0 0 .01-.037.064.064 0 0 0-.028-.031l.006-.011.1.057-.006.011a.076.076 0 0 0-.036.002q-.01 0-.022.022L9 8.757a.139.139 0 0 1-.077.067.127.127 0 0 1-.1-.021.131.131 0 0 1-.074-.103.129.129 0 0 1 .021-.069l.085-.142a.053.053 0 0 0 .011-.034.064.064 0 0 0-.024-.026l.006-.011zM9.013 8.881a.06.06 0 0 0 .034.013q.012 0 .029-.023l.124-.178a.046.046 0 0 0 .013-.037.073.073 0 0 0-.023-.026l.007-.01.133.1a.27.27 0 0 1 .061.057.077.077 0 0 1 .006.1.074.074 0 0 1-.063.033.127.127 0 0 1-.055-.012l.006.177v.011l.008.009-.007.01-.086-.062v-.202l-.056.079a.051.051 0 0 0-.013.034.054.054 0 0 0 .023.029l-.007.01-.14-.1zm.261-.023q.025 0 .052-.036a.1.1 0 0 0 .02-.042.053.053 0 0 0-.025-.053.048.048 0 0 0-.021-.011.019.019 0 0 0-.015.01l-.073.1a.151.151 0 0 0 .062.032zM9.336 9.117a.081.081 0 0 0 .028.014.03.03 0 0 0 .03-.015l.14-.194a.03.03 0 0 0 .006-.032.085.085 0 0 0-.023-.023l.007-.01.144.1-.007.01a.094.094 0 0 0-.03-.015.03.03 0 0 0-.029.015l-.14.194a.03.03 0 0 0-.007.029.072.072 0 0 0 .025.027l-.007.01-.144-.1zM9.528 9.257a.075.075 0 0 0 .026.015.03.03 0 0 0 .03-.013l.153-.184a.03.03 0 0 0 .008-.031.08.08 0 0 0-.02-.024l.008-.01.121.1a.239.239 0 0 1 .052.056.071.071 0 0 1 0 .09.058.058 0 0 1-.049.023.112.112 0 0 1-.057-.015.147.147 0 0 1 .026.045.077.077 0 0 1-.085.1.188.188 0 0 1-.1-.047l-.126-.1zm.109.072a.025.025 0 0 0 .012.023.06.06 0 0 0 .051.018.088.088 0 0 0 .046-.032.072.072 0 0 0 .02-.074.128.128 0 0 0-.04-.047l-.079.095a.039.039 0 0 0-.01.017zm.156-.095A.07.07 0 0 0 9.84 9.2a.1.1 0 0 0 .022-.043.042.042 0 0 0-.019-.041.035.035 0 0 0-.02-.01.023.023 0 0 0-.017.01l-.071.085a.1.1 0 0 0 .058.034zM10.129 9.35l-.009.009a.072.072 0 0 0-.035-.021q-.013 0-.032.019l-.115.119a.147.147 0 0 0-.034.048.063.063 0 0 0 .019.072.08.08 0 0 0 .086.025.15.15 0 0 0 .053-.039l.105-.109a.051.051 0 0 0 .018-.033.064.064 0 0 0-.02-.036l.009-.009.08.078-.009.009a.076.076 0 0 0-.031-.014q-.01 0-.027.016l-.11.114a.139.139 0 0 1-.09.048A.127.127 0 0 1 9.9 9.6a.131.131 0 0 1-.051-.12.128.128 0 0 1 .036-.062L10 9.3q.019-.02.019-.03A.064.064 0 0 0 10 9.239l.009-.009zM10.135 9.647l.01.011a.152.152 0 0 0-.031.084.089.089 0 0 0 .024.062.06.06 0 0 0 .046.023.056.056 0 0 0 .036-.015.047.047 0 0 0 .016-.036.186.186 0 0 0-.01-.046l-.011-.03a.215.215 0 0 1-.013-.082.085.085 0 0 1 .028-.054.1.1 0 0 1 .067-.027.1.1 0 0 1 .078.037.174.174 0 0 1 .031.044.2.2 0 0 0 .014.027.013.013 0 0 0 .011.005h.013l.01.011-.078.074-.01-.01a.149.149 0 0 0 .023-.07.08.08 0 0 0-.022-.063.056.056 0 0 0-.037-.02.048.048 0 0 0-.05.046.326.326 0 0 0 .016.068l.013.04a.149.149 0 0 1 .008.048.093.093 0 0 1-.03.067.1.1 0 0 1-.072.027.124.124 0 0 1-.09-.047.175.175 0 0 1-.019-.024.171.171 0 0 1-.015-.028v-.016h-.024l-.01-.011zM14.02 9.177l.009.01a.069.069 0 0 0-.024.033q0 .013.018.035l.115.131a.162.162 0 0 0 .047.04.063.063 0 0 0 .075-.012.079.079 0 0 0 .031-.086.164.164 0 0 0-.036-.059l-.1-.12a.056.056 0 0 0-.033-.022.062.062 0 0 0-.038.016l-.009-.01.084-.074.009.01a.073.073 0 0 0-.017.03q0 .01.015.029l.109.125a.152.152 0 0 1 .044.1.124.124 0 0 1-.051.092.128.128 0 0 1-.126.038.141.141 0 0 1-.061-.044l-.114-.131q-.019-.022-.03-.023a.062.062 0 0 0-.037.015l-.009-.01zM14.464 9.233c.015-.012.022-.022.023-.031a.048.048 0 0 0-.012-.029l-.147-.2-.042-.008a.028.028 0 0 0-.016 0l-.008-.011.087-.064.27.07-.091-.123a.059.059 0 0 0-.03-.025.054.054 0 0 0-.038.011l-.008-.011.088-.065.008.011a.072.072 0 0 0-.019.028c0 .007 0 .017.012.029l.183.246-.011.008-.346-.09.122.164a.065.065 0 0 0 .025.023.048.048 0 0 0 .044-.011l.008.011-.093.069zM14.812 8.583l.007.011a.069.069 0 0 0-.029.028q0 .012.011.038l.09.149a.162.162 0 0 0 .039.048.063.063 0 0 0 .075 0 .079.079 0 0 0 .045-.079.165.165 0 0 0-.025-.065l-.082-.136a.056.056 0 0 0-.028-.028.062.062 0 0 0-.04.009l-.007-.011.1-.058.007.011a.073.073 0 0 0-.021.027.045.045 0 0 0 .01.032l.086.143a.152.152 0 0 1 .026.1.124.124 0 0 1-.076.088.128.128 0 0 1-.13.016.141.141 0 0 1-.053-.054l-.09-.149q-.015-.025-.025-.028a.062.062 0 0 0-.035.009l-.007-.011zM15.245 8.717q.026-.014.029-.027a.047.047 0 0 0-.007-.031l-.115-.219q-.01-.019-.022-.02a.078.078 0 0 0-.035.009l-.006-.012.113-.06.2.166-.024-.259.122-.064.006.012a.067.067 0 0 0-.027.025q0 .011.009.038l.107.2q.013.025.026.029a.056.056 0 0 0 .036-.008l.006.012-.149.079-.014-.007a.071.071 0 0 0 .027-.023.034.034 0 0 0 0-.032l-.119-.225.032.329-.012.006-.251-.206.11.208a.062.062 0 0 0 .026.029.056.056 0 0 0 .043-.008l.006.012-.105.056zM16.328 17.695l-.049-.061-.232.588-.154.04-.3.732.2-.051.1.174.3-.732-.082-.138zm-.447 1.3l-.068-.115-.129.033.249-.6.129-.033.068.115zM16.162 17.554l-.04-.067-.218.358-.156.012-.426.668.2-.016.071.19.426-.668-.057-.153zm-.553 1.022l-.047-.125-.133.01.351-.551.133-.01.047.125z" transform="translate(-.1 -.1)"/><path class="cls-11" d="M16.082 17.405l-.033-.064-.583.594-.163-.014-.528.59.2.017.039.2.528-.59-.03-.153zm-1.034 1.2l-.026-.131-.133-.011.436-.487.133.011.026.131z" transform="translate(-.1 -.1)"/><path class="cls-11" d="M16.055 17.2l-.746.494-.15-.059-.677.412.188.075-.02.2.677-.412.016-.158.711-.471zm-.779.678l-.558.34.013-.132-.124-.049.558-.34.124.049z" transform="translate(-.1 -.1)"/><path d="M19.242 12.814l-.57.531.188.013-1.321 2.042-.2.38.253-.342 1.321-2.04.09.16zm-.312.493l-.13-.007.322-.3-.133.419z" transform="translate(-.1 -.1)" fill="#323a45"/><path class="cls-11" d="M18.122 13.17l-.466.625.183-.02-.992 2.533h.073l.98-2.508.12.145zm-.219.541l-.126.014.263-.353-.056.436z" transform="translate(-.1 -.1)"/><path class="cls-11" d="M18.286 13.735l-.526.575h.188l-.826 1.61-.112.268.175-.236.824-1.606.1.151zm-.271.517h-.127l.3-.325-.1.429zM19.294 13.338l-.645.518.2.029-1.873 2.441.054.043 1.872-2.44.083.178zm-.371.5l-.139-.02.38-.305-.181.453z" transform="translate(-.1 -.1)"/><path class="cls-11" d="M19.375 13.8l-.65.43.185.044-1.251 1.389-.3.387.359-.339 1.246-1.384.06.167zm-.512.406l.367-.243-.2.392-.043-.119z" transform="translate(-.1 -.1)"/><path class="cls-11" d="M19.28 14.354l-.684.374.18.059-1.692 1.6.048.048 1.688-1.6.047.176zm-.545.361l.386-.211-.232.373-.033-.123z" transform="translate(-.1 -.1)"/><path class="cls-11" d="M19.125 14.912l-.713.313.17.073-1.006.772-.243.254.286-.2 1.005-.772.033.184zm-.171.136l-.264.352-.022-.125-.117-.05z" transform="translate(-.1 -.1)"/><path class="cls-11" d="M19 15.421l-.743.235.154.087-1.261.739.066.041 1.239-.726.013.194zm-.185.117l-.3.322-.009-.127-.111-.062zM19.872 15.18l-.759.176.158.106-.335.131-.143.13.505-.2v.181zm-.193.1l-.325.3v-.127l-.105-.071zM20.009 14.6l-.752.205.163.1-.371.2-.112.137.512-.273.005.18zm-.189.109l-.313.309v-.127l-.108-.067zM20.093 14l-.729.276.17.084-.329.229-.112.162.478-.333.022.181zm-.178.127l-.282.338-.016-.126-.114-.056zM20.1 13.375l-.679.383.176.056-.306.289-.111.2.465-.439.051.18zm-.54.368l.383-.216-.228.376-.034-.122zM19.951 12.8l-.618.474.185.031-.246.3-.1.232.4-.489.074.168zm-.358.461l-.125-.021.349-.268-.173.4zM8.51 19.362a.163.163 0 0 1-.116-.075.584.584 0 0 0-.2-.12.342.342 0 0 1-.269-.39 1.72 1.72 0 0 0-.01-.608 1.6 1.6 0 0 0-.2-.42l-.015-.023.239-.259.024.019a1.863 1.863 0 0 1 .4.712 10.45 10.45 0 0 1 .255 1.02c0 .078-.027.125-.075.141a.094.094 0 0 1-.033.003zm-.726-1.632a1.663 1.663 0 0 1 .2.427 1.775 1.775 0 0 1 .01.627.275.275 0 0 0 .222.319.627.627 0 0 1 .235.145.1.1 0 0 0 .063.048h.008c.018-.006.027-.032.028-.078a6.267 6.267 0 0 0-.221-.893l-.031-.107a1.943 1.943 0 0 0-.352-.657zM7.527 14.926c-.08.035-.2.095-.249.115h-.009a2.261 2.261 0 0 0-.358.17.784.784 0 0 0-.233.353.634.634 0 0 1 .252-.451l.014-.008v-.016a.74.74 0 0 0-.036-.359 1.312 1.312 0 0 1-.016-.281v-.114l-.063.1s-.231.348-.3.42a1.232 1.232 0 0 0-.193.285 1.994 1.994 0 0 0-.049-.616c-.018-.08-.031-.257-.032-.259l-.006-.082-.052.063-.32.386a.921.921 0 0 0-.187.672l.015.07a.161.161 0 0 0-.112 0l-.07-.105a.138.138 0 0 0 .015-.185.143.143 0 0 0-.168-.046.355.355 0 0 1-.036-.066.518.518 0 0 1-.009-.06.166.166 0 0 0 .061-.027.161.161 0 0 0 .014-.245 1.272 1.272 0 0 1 .117-.12.966.966 0 0 0 .262-.341 1.366 1.366 0 0 0 .033-.7l-.011-.05-.041.031a2.962 2.962 0 0 0-.488.442 1.206 1.206 0 0 0-.116.213h-.01a1 1 0 0 1 .238-.451 1.561 1.561 0 0 0 .216-1.002v-.039l-.038.01a.731.731 0 0 0-.4.344l-.006.01v.011a1.347 1.347 0 0 1-.08.581c.014-.153.03-.35.029-.471a.9.9 0 0 0-.3-.606.233.233 0 0 1-.031-.146l.01-.163-.138.275a1.978 1.978 0 0 0-.18.684 1.323 1.323 0 0 0 .261.641.394.394 0 0 1 .073.107.832.832 0 0 0-.23-.205 2.017 2.017 0 0 0-.129-.056 1.658 1.658 0 0 1-.245-.115 3.238 3.238 0 0 1-.258-.285l-.08-.1.022.124a2.625 2.625 0 0 0 .24.739.865.865 0 0 0 .613.418.485.485 0 0 1 .052.012l.032.013a.139.139 0 0 0-.006.026.142.142 0 0 0 .121.16h.021a.143.143 0 0 0 .036-.005.309.309 0 0 1 .012.1.791.791 0 0 0-.518-.141 1.914 1.914 0 0 0-.45.129L4 14.728l.019.033a.826.826 0 0 0 .381.339h.017a1.024 1.024 0 0 1 .532.026.143.143 0 0 0 .072.033h.008a.669.669 0 0 1 .109.066 1.626 1.626 0 0 0-.55-.073.918.918 0 0 0-.429.181l-.092.076.118-.018c.094-.015.3.134.371.182l.036.025a1.259 1.259 0 0 0 .695.109h.061a.2.2 0 0 0-.044.076.664.664 0 0 0-.574.121.763.763 0 0 1-.251.085L4.41 16l.115.1a1.23 1.23 0 0 0 .424.218h.017l.013-.011a.85.85 0 0 1 .451-.188 1.211 1.211 0 0 0-.378.253 2.051 2.051 0 0 0-.244.327l-.02.033.073.031a1.171 1.171 0 0 0 .684-.023 2.572 2.572 0 0 0 .468-.342H6.05a.143.143 0 0 0 .043-.007.2.2 0 0 0-.038.08 1.2 1.2 0 0 0-.616.531c-.037.112-.2.456-.2.46l-.022.047h.158a.724.724 0 0 0 .337-.106l.022-.013v-.016a.974.974 0 0 1 .219-.531 1.487 1.487 0 0 0-.139.46 2.059 2.059 0 0 0 .006.535.819.819 0 0 1 0 .169l-.01.088.158-.145a1.415 1.415 0 0 0 .5-.78 2.562 2.562 0 0 0 .008-.611l.023-.013a.35.35 0 0 1 .182.168l.016.056.289-.3-.035-.021c-.056-.034-.118-.075-.156-.1v-.014a.173.173 0 0 0-.045-.126.255.255 0 0 1 .035-.107.288.288 0 0 1 .181-.133 1.068 1.068 0 0 0 .47-.419 1.425 1.425 0 0 0 .067-.219c.007-.028.106-.266.16-.414l.018-.06zm-1.214.828l.008.016a.353.353 0 0 1 .048.168.165.165 0 0 0-.175.013.165.165 0 0 0-.023.021l-.015-.015a.405.405 0 0 1-.061-.127.193.193 0 0 0 .061-.207.78.78 0 0 0 .093-.152.777.777 0 0 0 .064.283zm-.119.314A.1.1 0 0 1 6.232 16a.1.1 0 0 1 .059-.019h.015a.1.1 0 0 1 .066.039.1.1 0 0 1-.02.135.1.1 0 0 1-.074.018.1.1 0 0 1-.084-.105zm-.343-.311a.131.131 0 0 1 .027-.186.137.137 0 0 1 .081-.026h.021a.137.137 0 0 1 .09.053.131.131 0 0 1-.027.186.139.139 0 0 1-.192-.028zm.075-1.084l.269-.323c.006.06.015.138.026.187a1.273 1.273 0 0 1-.1 1.019.2.2 0 0 0-.307-.015.161.161 0 0 0-.029-.107l-.032-.145a.861.861 0 0 1 .173-.617zm-.279.756h.015a.1.1 0 0 1 .084.11.1.1 0 0 1-.038.063.1.1 0 0 1-.14-.021.1.1 0 0 1 .02-.135.1.1 0 0 1 .059-.017zm-.227-.337h.012a.077.077 0 0 1 .051.03.073.073 0 0 1-.015.1.078.078 0 0 1-.107-.016.073.073 0 0 1 .015-.1.077.077 0 0 1 .044-.014zm-.037-.327a.1.1 0 0 1-.038.063.1.1 0 0 1-.074.018.1.1 0 0 1-.084-.11.1.1 0 0 1 .038-.063.1.1 0 0 1 .059-.019H5.3a.1.1 0 0 1 .083.111zm-.274-.506a.1.1 0 0 1 .038-.063.1.1 0 0 1 .059-.019h.015a.1.1 0 1 1-.113.081zm-.165.307a.074.074 0 0 1 .01-.148h.011a.077.077 0 0 1 .051.03.073.073 0 0 1-.015.1.077.077 0 0 1-.057.018zm.171.467a.077.077 0 0 1-.151-.022.073.073 0 0 1 .03-.049.077.077 0 0 1 .045-.015h.012a.076.076 0 0 1 .065.086zm.166.612a1.186 1.186 0 0 1-.658-.1l-.031-.022a1.273 1.273 0 0 0-.323-.183.848.848 0 0 1 .325-.118 1.561 1.561 0 0 1 .661.124l.109.054-.064-.1a.6.6 0 0 0-.177-.159.139.139 0 0 0 .061-.1.144.144 0 0 0-.227-.134A.139.139 0 0 0 4.9 15a.137.137 0 0 0 0 .044 1.134 1.134 0 0 0-.487-.009.735.735 0 0 1-.314-.275 1.663 1.663 0 0 1 .391-.109.728.728 0 0 1 .493.139l.031.02.057.036-.006-.063a.4.4 0 0 0-.014-.188.138.138 0 0 0 .018-.188.144.144 0 0 0-.213-.018.481.481 0 0 0-.047-.02.489.489 0 0 0-.061-.015.8.8 0 0 1-.57-.388 2.165 2.165 0 0 1-.205-.589 1.964 1.964 0 0 0 .184.2 1.559 1.559 0 0 0 .26.124c.052.022.1.042.123.054a1.214 1.214 0 0 1 .361.394l.133.2-.073-.229a1.117 1.117 0 0 0-.183-.374 1.285 1.285 0 0 1-.238-.6 1.971 1.971 0 0 1 .173-.65l.012-.025a.161.161 0 0 0 .041.077.826.826 0 0 1 .275.558c0 .21-.05.677-.051.682l-.02.181.083-.162A1.551 1.551 0 0 0 5.227 13a.717.717 0 0 1 .312-.289 1.434 1.434 0 0 1-.2.915 1.015 1.015 0 0 0-.26.548.16.16 0 0 0-.032.074.165.165 0 0 0 .141.186h.025a.163.163 0 0 0 .026-.325 1.1 1.1 0 0 1 .1-.17 2.6 2.6 0 0 1 .43-.394 1.24 1.24 0 0 1-.039.606.9.9 0 0 1-.246.318 1.3 1.3 0 0 0-.126.13.163.163 0 0 0-.165.018.161.161 0 0 0-.065.107.165.165 0 0 0 .136.185.578.578 0 0 0 .011.072.381.381 0 0 0 .046.09.139.139 0 0 0-.006.177.144.144 0 0 0 .094.055h.021a.143.143 0 0 0 .04-.006l.071.106a.16.16 0 0 0-.018.215.166.166 0 0 0 .028.028h-.019a.209.209 0 0 0-.049 0 .9.9 0 0 0-.201-.002zm.212.067h.021a.137.137 0 0 1 .09.053.131.131 0 0 1 .026.1.135.135 0 0 1-.155.112.137.137 0 0 1-.09-.053.131.131 0 0 1 .027-.186.137.137 0 0 1 .082-.027zm-.543.54a1.175 1.175 0 0 1-.382-.2l-.013-.011a.57.57 0 0 0 .221-.09.605.605 0 0 1 .516-.1.2.2 0 0 0 .04.114.2.2 0 0 0 .134.079h.03a.2.2 0 0 0 .176-.1l.06.02a.139.139 0 0 0-.048.086.137.137 0 0 0 0 .018.924.924 0 0 0-.734.183zM5.825 16h.011a.076.076 0 0 1 .065.085.073.073 0 0 1-.03.049.078.078 0 0 1-.057.014.074.074 0 0 1 .011-.148zm-.308.69a1.132 1.132 0 0 1-.63.022 1.774 1.774 0 0 1 .212-.28.919.919 0 0 1 .6-.289.143.143 0 0 0 .1.072h.021a.143.143 0 0 0 .084-.028.139.139 0 0 0 .056-.093.142.142 0 0 0-.121-.16.143.143 0 0 0-.1.022l-.023-.056-.02-.033a.2.2 0 0 0-.039-.138.2.2 0 0 0-.042-.04h.033a.166.166 0 0 0 .062-.013l.036.033.016.015a.2.2 0 0 0 .038.076.2.2 0 0 0 .133.079h.03a.2.2 0 0 0 .072-.014A.424.424 0 0 0 6.1 16a.213.213 0 0 0 .033.031.159.159 0 0 0 .022.148.143.143 0 0 0-.087-.048.142.142 0 0 0-.162.119.14.14 0 0 0 .044.124 2.584 2.584 0 0 1-.433.311zm.627-.08a.131.131 0 0 1-.026-.1.135.135 0 0 1 .134-.114h.02a.133.133 0 1 1-.039.264.137.137 0 0 1-.089-.055zm-.1-.263a.074.074 0 0 1 .01-.148h.011a.076.076 0 0 1 .065.085.073.073 0 0 1-.03.049.077.077 0 0 1-.061.009zm-.364 1.019a.654.654 0 0 1-.3.093h-.056c.045-.1.148-.328.179-.419a1.121 1.121 0 0 1 .551-.477.2.2 0 0 0 .037.087l.01.011a.851.851 0 0 0-.426.7zm.728-.189a1.358 1.358 0 0 1-.479.739l-.031.028a.5.5 0 0 0 0-.1 2 2 0 0 1-.005-.515 1.14 1.14 0 0 1 .257-.611l.01-.01a.206.206 0 0 0 .072.025h.03a.2.2 0 0 0 .164-.084 2.64 2.64 0 0 1-.026.523zm.328-.837a.109.109 0 0 1-.117.1.112.112 0 0 1-.077-.037.106.106 0 0 1-.028-.078.109.109 0 0 1 .11-.1h.007a.11.11 0 0 1 .1.11zm.709-1.016a1.361 1.361 0 0 1-.064.209 1.042 1.042 0 0 1-.42.379.353.353 0 0 0-.226.164.327.327 0 0 0-.038.1.178.178 0 0 0-.061-.015.177.177 0 0 0-.188.164.172.172 0 0 0 .045.127.178.178 0 0 0 .122.058h.011a.177.177 0 0 0 .151-.085c.036.026.078.053.11.073l-.16.168a.5.5 0 0 0-.208-.17l-.019-.014-.043.024a.2.2 0 0 0-.172-.178H6.26a.71.71 0 0 0-.071-.029v-.009a.139.139 0 0 0-.025-.1.166.166 0 0 0 .1.057h.025a.166.166 0 0 0 .1-.032.16.16 0 0 0 .039-.221.4.4 0 0 0-.051-.255v-.009a.686.686 0 0 1-.06-.3 1.03 1.03 0 0 1 .26-.531 3.623 3.623 0 0 0 .25-.339.744.744 0 0 0 .022.2.674.674 0 0 1 .033.309.661.661 0 0 0-.249.683l.04.145.025-.149a.88.88 0 0 1 .252-.479 2.153 2.153 0 0 1 .345-.162h.009a1.5 1.5 0 0 0 .277-.135 4.843 4.843 0 0 0-.141.347zM11.639 8.763l-.017-.049a.431.431 0 0 0-.407-.292.363.363 0 0 0-.215.067l-.051.036v-.063a.379.379 0 0 0-.107-.283.437.437 0 0 0-.39-.133l-.049.01.014-.048a.46.46 0 0 0-.045-.361.439.439 0 0 0-.3-.2l-.04-.008.02-.036a.459.459 0 0 0-.174-.631l-.028-.027.036-.025a.444.444 0 0 0 .18-.326.384.384 0 0 0-.117-.315l-.037-.035.048-.015a.418.418 0 0 0 .253-.219.462.462 0 0 0-.005-.377l-.018-.045h.048a.412.412 0 0 0 .327-.138.44.44 0 0 0 .107-.344v-.044l.042.011a.558.558 0 0 0 .146.02.421.421 0 0 0 .432-.339l.007-.049.04.029a.5.5 0 0 0 .292.1.413.413 0 0 0 .362-.21l.027-.056.027.056a.415.415 0 0 0 .373.191.421.421 0 0 0 .279-.1l.039-.034.01.051a.438.438 0 0 0 .423.339.427.427 0 0 0 .168-.035l.052-.022-.011.055a.4.4 0 0 0 .088.338.441.441 0 0 0 .32.166.238.238 0 0 0 .055-.006l.033.045a.419.419 0 0 0-.027.361.414.414 0 0 0 .293.248l.056.016-.045.036a.4.4 0 0 0-.143.35.384.384 0 0 0 .2.3l.061.031-.064.024a.4.4 0 0 0-.245.271.446.446 0 0 0 .059.388l.036.048H14a.4.4 0 0 0-.3.173.42.42 0 0 0-.052.389l.022.064-.07-.011a.363.363 0 0 0-.143-.029.425.425 0 0 0-.415.414v.065L13 8.5a.3.3 0 0 0-.2-.066.441.441 0 0 0-.4.26l-.017.044-.033-.034a.454.454 0 0 0-.328-.15.463.463 0 0 0-.344.166zm-.423-.4a.49.49 0 0 1 .446.288.512.512 0 0 1 .355-.152.5.5 0 0 1 .34.138.511.511 0 0 1 .441-.258.38.38 0 0 1 .191.048.489.489 0 0 1 .471-.419.421.421 0 0 1 .11.015.482.482 0 0 1 .374-.58.508.508 0 0 1-.04-.4.47.47 0 0 1 .228-.286.447.447 0 0 1-.185-.321.457.457 0 0 1 .125-.367.461.461 0 0 1-.282-.268.489.489 0 0 1 0-.361.5.5 0 0 1-.375-.188.463.463 0 0 1-.108-.337.481.481 0 0 1-.143.022.5.5 0 0 1-.464-.337.493.493 0 0 1-.281.083.5.5 0 0 1-.4-.18.478.478 0 0 1-.39.2.545.545 0 0 1-.289-.087.488.488 0 0 1-.482.345.605.605 0 0 1-.121-.013.493.493 0 0 1-.125.349.479.479 0 0 1-.33.159.5.5 0 0 1-.012.383.476.476 0 0 1-.245.234.445.445 0 0 1 .1.329.513.513 0 0 1-.173.346.509.509 0 0 1 .177.651.489.489 0 0 1 .3.221.521.521 0 0 1 .062.364.5.5 0 0 1 .4.157.442.442 0 0 1 .122.273.431.431 0 0 1 .202-.051z" transform="translate(-.1 -.1)"/><path class="cls-11" d="M12.022 9.451a.506.506 0 0 1-.446-.3.471.471 0 0 1-.337.143.483.483 0 0 1-.479-.427.555.555 0 0 1-.216.045.465.465 0 0 1-.364-.165.52.52 0 0 1-.1-.425.479.479 0 0 1-.475-.717.5.5 0 0 1-.353-.345.472.472 0 0 1 .148-.475.489.489 0 0 1-.232-.422.517.517 0 0 1 .3-.454.472.472 0 0 1 .339-.773.525.525 0 0 1 .057-.461.5.5 0 0 1 .53-.188.454.454 0 0 1 .105-.315.477.477 0 0 1 .37-.183.526.526 0 0 1 .288.091.468.468 0 0 1 .453-.354.522.522 0 0 1 .4.2.492.492 0 0 1 .413-.213.44.44 0 0 1 .443.356.469.469 0 0 1 .764.419.354.354 0 0 1 .147-.029.53.53 0 0 1 .427.222.469.469 0 0 1 .034.435.461.461 0 0 1 .432.279.513.513 0 0 1-.074.526.514.514 0 0 1 .31.384.474.474 0 0 1-.247.5.481.481 0 0 1 .164.51.5.5 0 0 1-.369.334.522.522 0 0 1 0 .5.51.51 0 0 1-.446.233h-.046a.566.566 0 0 1-.13.421.451.451 0 0 1-.341.152.563.563 0 0 1-.22-.047.474.474 0 0 1-.47.416.57.57 0 0 1-.36-.137.478.478 0 0 1-.419.269zm-.43-.409l.02.046a.456.456 0 0 0 .411.3.43.43 0 0 0 .383-.27l.018-.036.03.028a.519.519 0 0 0 .349.147.422.422 0 0 0 .416-.4v-.042l.038.019a.431.431 0 0 0 .527-.074.518.518 0 0 0 .112-.411v-.038l.038.005a.468.468 0 0 0 .47-.2.478.478 0 0 0-.018-.479l-.02-.039h.044a.421.421 0 0 0 .183-.773l-.032-.027.036-.021a.428.428 0 0 0 .253-.456.435.435 0 0 0-.309-.348l-.054-.01.037-.04a.459.459 0 0 0 .094-.5.4.4 0 0 0-.419-.242h-.049l.019-.046a.433.433 0 0 0-.012-.422.468.468 0 0 0-.377-.2.25.25 0 0 0-.163.05l-.049-.027a.452.452 0 0 0-.085-.372.42.42 0 0 0-.32-.13.372.372 0 0 0-.29.111l-.054-.015a.381.381 0 0 0-.393-.363.428.428 0 0 0-.383.22l-.022.041L11.992 4a.476.476 0 0 0-.376-.209.407.407 0 0 0-.4.349l-.007.05-.041-.03a.487.487 0 0 0-.291-.106.417.417 0 0 0-.324.16.38.38 0 0 0-.087.311l.01.049-.048-.013a.452.452 0 0 0-.509.153.474.474 0 0 0-.038.443l.015.039h-.042a.434.434 0 0 0-.4.251.429.429 0 0 0 .085.456l.026.03-.036.017a.469.469 0 0 0-.3.417.428.428 0 0 0 .237.389l.041.02-.035.03a.424.424 0 0 0-.16.445.436.436 0 0 0 .345.31l.043.007-.021.032a.452.452 0 0 0-.02.459.446.446 0 0 0 .456.2l.041-.005-.008.041a.484.484 0 0 0 .078.414.406.406 0 0 0 .317.143.5.5 0 0 0 .228-.056l.04-.021v.045a.427.427 0 0 0 .424.414.407.407 0 0 0 .322-.156zM13.851 12.589h-3.646v3.823a.334.334 0 0 0 .333.334h1.3a.046.046 0 0 1 .037.02l.164.234.163-.234a.046.046 0 0 1 .038-.02h1.3a.334.334 0 0 0 .333-.334v-3.823zm-.551 4.086v-2.646h.211v2.646zm-.067 0h-.2v-2.66h.2zm-.814-2.65v2.646h-.209v-2.642zm.067-.014h.2v2.664h-.2zm.48.014v2.646h-.211v-2.642zm-2.688-.06v-1.309h3.527v1.313zm1.6 2.706h-.211v-2.642h.211zm-.278 0h-.2v-2.656h.2zm-.814-2.65v2.646h-.211v-2.638zm.067-.014h.2v2.664h-.2zm.48.014v2.646h-.211v-2.638zm-1.058 2.383v-2.4h.234v2.662a.267.267 0 0 1-.237-.254zm1.772.471l-.1-.144v-2.716h.2v2.725zm1.537-.206v-2.654h.234v2.4a.267.267 0 0 1-.237.262z" transform="translate(-.1 -.1)"/><path class="cls-11" d="M14.372 18.692l-.012-.06a2.957 2.957 0 0 0-1.308-1.567v-.006c.038-.113-.073-.249-.176-.346h-.1a.179.179 0 0 1 .025.1.044.044 0 0 1-.019.031c-.052.037-.19-.048-.249-.1l-.039-.031h-.031l.017.065c.03.119.048.3-.009.328-.117.046-.182-.085-.207-.142l-.053-.135s0 .1-.007.132c-.01.11-.072.358-.162.358s-.154-.242-.172-.356c-.006-.035-.017-.142-.017-.142s-.057.107-.079.144a.329.329 0 0 1-.132.14.1.1 0 0 1-.077 0 .046.046 0 0 1-.027-.027.505.505 0 0 1 .05-.285l.036-.082h-.032l-.054.042a.433.433 0 0 1-.218.1.026.026 0 0 1-.019-.011c-.03-.043 0-.1.038-.133h-.164c-.13.1-.27.245-.209.366a.1.1 0 0 0 .016.023 2.91 2.91 0 0 0-1.255 1.529l-.012.06.057-.023a3.121 3.121 0 0 0 .676-.387 2.062 2.062 0 0 0-.356.893v.062l.053-.031a2.992 2.992 0 0 0 .7-.575 2.077 2.077 0 0 0-.165.965l.01.061.046-.041a3.072 3.072 0 0 0 .523-.646 2.006 2.006 0 0 0 .062.905l.023.057.035-.051a3.107 3.107 0 0 0 .355-.711 1.8 1.8 0 0 0 .271 1l.025.03.026-.03a1.96 1.96 0 0 0 .272-1.151 2.929 2.929 0 0 0 .4.863l.035.051.023-.057a2.008 2.008 0 0 0 .062-.906 3.071 3.071 0 0 0 .523.647l.046.041.01-.061a2.083 2.083 0 0 0-.166-.966 2.991 2.991 0 0 0 .7.576l.053.031v-.062a2.06 2.06 0 0 0-.356-.893 3.121 3.121 0 0 0 .676.388zm-1.55-1.8a.111.111 0 0 0 .046-.076.142.142 0 0 0 0-.021c.079.081.146.174.123.24-.01.028-.023.031-.028.032-.051.01-.15-.069-.236-.156a.13.13 0 0 0 .095-.017zm-.259-.048l.028.016c.069.083.228.306.212.43a.083.083 0 0 1-.034.061.044.044 0 0 1-.04.007c-.063-.016-.14-.116-.2-.214.062-.059.051-.202.035-.298zm-.309.232a.225.225 0 0 0 .2.1c.068.163.123.369.018.438a.055.055 0 0 1-.055.008c-.08-.033-.158-.23-.208-.408a.9.9 0 0 0 .046-.137zm-.37.178c.036.073.087.129.158.129a.14.14 0 0 0 .106-.055.72.72 0 0 1-.052.434.1.1 0 0 1-.084.043.1.1 0 0 1-.08-.036.845.845 0 0 1-.047-.514zm-.3-.077a.162.162 0 0 0 .091-.014.36.36 0 0 0 .143-.148.895.895 0 0 0 .022.1v.016c-.032.158-.1.4-.2.457a.08.08 0 0 1-.078 0 .093.093 0 0 1-.049-.061.625.625 0 0 1 .068-.349zm-.178-.248l.046-.042.042-.023a.394.394 0 0 0-.014.239.12.12 0 0 0 .024.036c-.075.1-.161.194-.22.2a.041.041 0 0 1-.037-.011.109.109 0 0 1-.037-.087.6.6 0 0 1 .19-.31zm-.17-.179a.134.134 0 0 0 .012.132.093.093 0 0 0 .064.039c-.1.079-.208.152-.263.143a.027.027 0 0 1-.022-.016c-.041-.076.073-.198.206-.296zm-1.425 1.829a3.21 3.21 0 0 1 1.243-1.447.307.307 0 0 0 .14-.047.346.346 0 0 0-.053.16.174.174 0 0 0 .053.132l-.086.1a4.829 4.829 0 0 0-.5.568 2.39 2.39 0 0 1-.073.072 2.818 2.818 0 0 1-.724.462zm1-.029a2.817 2.817 0 0 1-.649.56 3.292 3.292 0 0 1 1.11-1.7h.015a.349.349 0 0 0 .173-.118.5.5 0 0 0-.029.242 5.063 5.063 0 0 0-.5.847c-.038.066-.08.119-.116.169zm.432.282a2.819 2.819 0 0 1-.515.684 3.316 3.316 0 0 1 .735-1.911.155.155 0 0 0 .055.046.153.153 0 0 0 .089.016 4.916 4.916 0 0 0-.334 1.1.315.315 0 0 1-.026.065zm.471.1c0 .023-.009.045-.014.065a2.819 2.819 0 0 1-.351.782 3.42 3.42 0 0 1 .351-2.162.478.478 0 0 0 .1-.154.781.781 0 0 0 .038.273 6.368 6.368 0 0 0-.12 1.2zm.3 1.151a3.342 3.342 0 0 1-.127-2.263.158.158 0 0 0 .116.048h.006a.17.17 0 0 0 .134-.069l.013-.02a3.638 3.638 0 0 1-.135 2.309zm.713-.3a2.818 2.818 0 0 1-.344-.783 4.78 4.78 0 0 1-.069-.4 8.243 8.243 0 0 0-.1-.952 1 1 0 0 0 .014-.2.431.431 0 0 0 .173.235h.015a3.368 3.368 0 0 1 .317 2.1zm.621-.267a2.815 2.815 0 0 1-.515-.684l-.031-.066a4.9 4.9 0 0 0-.325-1.079.145.145 0 0 0 .031-.015.187.187 0 0 0 .076-.107 3.352 3.352 0 0 1 .77 1.952zm.565-.406a2.818 2.818 0 0 1-.649-.56c-.036-.046-.079-.1-.125-.171a5.156 5.156 0 0 0-.544-.911.622.622 0 0 0-.02-.138.3.3 0 0 0 .132.095.111.111 0 0 0 .093-.016 3.3 3.3 0 0 1 1.119 1.701zm-.367-.99a2.39 2.39 0 0 1-.073-.072 4.836 4.836 0 0 0-.5-.566l-.119-.144a.169.169 0 0 0 .009-.037.428.428 0 0 0-.059-.227.241.241 0 0 0 .164.06.094.094 0 0 0 .037-.016 3.227 3.227 0 0 1 1.262 1.461 2.818 2.818 0 0 1-.715-.459zM16.443 16.725a.6.6 0 0 1 .017-.172s.035-.066.05-.086a.1.1 0 0 0-.067-.12c-.1-.034-.129.033-.133.1a.488.488 0 0 0 .017.155c.023.063.049.071.116.123z" transform="translate(-.1 -.1)"/><path class="cls-11" d="M17.459 16.9a1.512 1.512 0 0 0-.281-.321l-.1-.1-.013-.014c-.054-.06-.1-.1-.286-.092h-.007a.259.259 0 0 0-.141-.2.436.436 0 0 0-.358 0 .257.257 0 0 0-.149.164.4.4 0 0 0 .02.3H15.7v-.022c-.022-.142-.247-.3-.4-.373a.888.888 0 0 0-.527-.444l-.093-.031a.094.094 0 0 0-.008-.028 1.09 1.09 0 0 0-.821-.312h-.009v.967a.3.3 0 0 1-.117.238.193.193 0 0 0 .084-.039.189.189 0 0 0 .058-.166l.017-.934a1.029 1.029 0 0 1 .727.275v.014a.865.865 0 0 1-.448.029l-.218-.023.2.086c.165.071.4.212.385.29s-.281.072-.405.05l-.242-.043.222.106c.1.046.372.207.35.331-.012.067-.268.08-.5.049l-.146-.019.124.08c.157.1.379.287.357.362-.007.023-.041.039-.093.046a1.234 1.234 0 0 1-.928-.431h-.084a1.313 1.313 0 0 0 .955.5.53.53 0 0 0 .066 0 .288.288 0 0 0 .07-.017.95.95 0 0 0 .1.056 1.175 1.175 0 0 0 .4.108.24.24 0 0 0 .1-.017.13.13 0 0 0 .038-.026.516.516 0 0 0 .12.027h.084a.528.528 0 0 0 .366-.1.155.155 0 0 0 .035-.063l.632-.016a.2.2 0 0 0 0 .038.3.3 0 0 0 .155.3.775.775 0 0 1 .127.134.58.58 0 0 0 .194.179.228.228 0 0 0 .086.016.328.328 0 0 0 .238-.111.309.309 0 0 0 .041-.211.479.479 0 0 0 .058 0 .218.218 0 0 0 .168-.06.247.247 0 0 0 .04-.264h.027a.172.172 0 0 0 .142-.066.235.235 0 0 0 .032-.202zm-1.268-.539a.192.192 0 0 1 .113-.12.372.372 0 0 1 .3 0 .189.189 0 0 1 .1.145.181.181 0 0 0-.087.072.326.326 0 0 0-.143.115.317.317 0 0 1 .108.024.233.233 0 0 0 .04.133.207.207 0 0 0-.059.037.265.265 0 0 0-.17-.015l-.151-.09c-.003.001-.108-.078-.051-.299zm-.873-.007v-.015c.139.077.3.2.319.3a.078.078 0 0 1-.039.08.541.541 0 0 1-.415.06c.006-.12-.145-.267-.3-.385.154.055.316.093.389.047a.1.1 0 0 0 .046-.085zm-.981-.446a.535.535 0 0 0 .323-.058l.091.03c.171.064.5.246.5.479a.031.031 0 0 1-.014.031c-.084.053-.424-.08-.638-.185v-.009c.023-.105-.131-.214-.262-.286zm-.053.406a.438.438 0 0 0 .277-.054c.234.137.574.39.554.525a.043.043 0 0 1-.024.034c-.1.059-.439-.048-.616-.115a.106.106 0 0 0 .05-.067c.024-.124-.125-.244-.24-.321zm.6.927a.054.054 0 0 1-.033.035.765.765 0 0 1-.44-.09.681.681 0 0 1-.07-.037.1.1 0 0 0 .019-.035c.031-.109-.15-.266-.278-.361a.976.976 0 0 0 .305-.014c.213.125.539.37.497.504zm.553-.048a.551.551 0 0 1-.4.078.418.418 0 0 1-.091-.019c.033-.136-.14-.3-.3-.418a.766.766 0 0 0 .472.042.116.116 0 0 0 .032-.027c.094.037.279.127.3.262a.092.092 0 0 1-.013.089zm.738-.1l-.65.017v-.01a.379.379 0 0 0-.19-.236.507.507 0 0 0 .3-.089.172.172 0 0 0 .05-.056h.513l.012.01.107.064a.322.322 0 0 0-.062.044h.067a.152.152 0 0 1 .114.057l.035.038a.225.225 0 0 0-.015.045.313.313 0 0 0-.161.019.721.721 0 0 0-.035-.068.328.328 0 0 0-.037.108.2.2 0 0 0-.048.057zm.724.578a.241.241 0 0 1-.246.073.545.545 0 0 1-.168-.159.812.812 0 0 0-.14-.146c-.094-.067-.117-.082-.127-.245a.122.122 0 0 1 .017-.072.707.707 0 0 0 .044.093c.04.075.1.11.167.041a.121.121 0 0 0 .019-.136.449.449 0 0 0-.107-.063l-.014-.009a.264.264 0 0 1 .071-.011.133.133 0 0 1 .062.012 3.259 3.259 0 0 1 .383.372l.056.06a.223.223 0 0 1-.016.189zm.27-.272c-.044.051-.161.038-.212.027l-.048-.051a3.2 3.2 0 0 0-.387-.375.065.065 0 0 1 0-.023.1.1 0 0 0 .08.011.1.1 0 0 0 .034-.168l-.008-.005a.177.177 0 0 1 .068-.025.106.106 0 0 1 .082.017l.028.024a2.6 2.6 0 0 1 .384.368.181.181 0 0 1-.021.201zm.207-.326a.116.116 0 0 1-.111.039.267.267 0 0 1-.06-.015 3.893 3.893 0 0 0-.352-.322l-.028-.023a.163.163 0 0 0-.12-.033l-.019-.015a.111.111 0 0 1-.028-.06.144.144 0 0 0 .11.034c.022-.007.128-.08.058-.15a.237.237 0 0 0-.109-.068.143.143 0 0 1 .065-.017c.166-.006.2.028.234.07l.014.015.1.1a1.794 1.794 0 0 1 .266.3.169.169 0 0 1-.02.145zM7.695 16.725a.6.6 0 0 0-.017-.172s-.035-.066-.05-.086a.1.1 0 0 1 .067-.12c.1-.034.129.033.133.1a.488.488 0 0 1-.017.155c-.024.063-.05.071-.116.123z" transform="translate(-.1 -.1)"/><path class="cls-11" d="M10.862 16.713a1.234 1.234 0 0 1-.928.431c-.053-.007-.087-.023-.093-.046-.022-.074.2-.26.357-.362l.124-.08-.146.019c-.231.031-.486.018-.5-.049-.022-.124.252-.285.35-.331l.209-.1-.229.04c-.125.022-.388.039-.405-.05s.221-.219.385-.29l.2-.086-.218.023a.865.865 0 0 1-.448-.029v-.014a1.02 1.02 0 0 1 .712-.274v-.067c-.288.007-.694.149-.772.312a.094.094 0 0 0-.008.028l-.093.031a.888.888 0 0 0-.527.444c-.152.075-.377.231-.4.373v.022h-.444a.4.4 0 0 0 .02-.3.257.257 0 0 0-.149-.164.436.436 0 0 0-.358 0 .259.259 0 0 0-.141.2h-.005c-.183-.006-.232.032-.286.092l-.013.014c-.024.026-.059.06-.1.1a1.512 1.512 0 0 0-.281.321.235.235 0 0 0 .031.212.172.172 0 0 0 .142.066h.027a.247.247 0 0 0 .04.264.218.218 0 0 0 .168.06.479.479 0 0 0 .058 0 .309.309 0 0 0 .041.211.328.328 0 0 0 .238.111.228.228 0 0 0 .086-.016.58.58 0 0 0 .194-.179.775.775 0 0 1 .127-.134.3.3 0 0 0 .155-.3.2.2 0 0 0 0-.038l.632.016a.155.155 0 0 0 .035.063.528.528 0 0 0 .366.1h.084a.516.516 0 0 0 .12-.027.13.13 0 0 0 .038.026.24.24 0 0 0 .1.017 1.175 1.175 0 0 0 .4-.108.95.95 0 0 0 .1-.056.288.288 0 0 0 .07.017.53.53 0 0 0 .066 0 1.313 1.313 0 0 0 .955-.5zm-1.01-.4c-.119.077-.264.2-.241.322a.106.106 0 0 0 .05.067c-.177.067-.512.174-.616.115a.043.043 0 0 1-.024-.034c-.02-.135.32-.388.554-.525a.438.438 0 0 0 .278.058zm-.467-.438l.091-.03a.535.535 0 0 0 .323.058c-.131.073-.285.182-.264.285v.009c-.214.1-.554.237-.638.185a.031.031 0 0 1-.014-.031c.006-.227.331-.409.502-.473zm-.884.764c.015-.1.18-.224.319-.3v.015a.1.1 0 0 0 .045.089c.073.046.235.008.389-.047-.154.118-.3.265-.3.385a.541.541 0 0 1-.415-.06.078.078 0 0 1-.039-.079zm-.97-.4a.372.372 0 0 1 .3 0 .192.192 0 0 1 .113.12c.057.221-.048.3-.056.307l-.151.09a.265.265 0 0 0-.17.015.207.207 0 0 0-.059-.037.233.233 0 0 0 .04-.133.317.317 0 0 1 .108-.024.326.326 0 0 0-.143-.115.181.181 0 0 0-.087-.072.189.189 0 0 1 .106-.147zm-.659.869a.116.116 0 0 1-.111-.039.169.169 0 0 1-.021-.148 1.794 1.794 0 0 1 .266-.3l.1-.1.014-.015c.038-.042.068-.077.234-.07a.143.143 0 0 1 .065.017.237.237 0 0 0-.109.068c-.07.071.036.144.058.15a.144.144 0 0 0 .11-.034.111.111 0 0 1-.028.06l-.019.015a.163.163 0 0 0-.12.033l-.028.023a3.893 3.893 0 0 0-.352.322.267.267 0 0 1-.059.022zm.308.314c-.051.011-.167.024-.212-.027a.181.181 0 0 1-.025-.205 2.6 2.6 0 0 1 .384-.368l.028-.024a.106.106 0 0 1 .082-.017.177.177 0 0 1 .068.025l-.008.005a.1.1 0 0 0 .034.168.1.1 0 0 0 .08-.011.065.065 0 0 1 0 .023 3.2 3.2 0 0 0-.388.378zm.612.013a.812.812 0 0 0-.14.146.545.545 0 0 1-.168.159.241.241 0 0 1-.246-.073.223.223 0 0 1-.018-.191l.056-.06a3.259 3.259 0 0 1 .383-.372.133.133 0 0 1 .062-.012.264.264 0 0 1 .071.011l-.014.009a.449.449 0 0 0-.107.063.121.121 0 0 0 .019.136c.067.069.127.034.167-.041a.707.707 0 0 0 .044-.093.122.122 0 0 1 .017.072c-.009.167-.032.183-.126.25zm.821-.337v.008l-.65-.017a.2.2 0 0 0-.052-.061.328.328 0 0 0-.037-.108.721.721 0 0 0-.035.068.313.313 0 0 0-.161-.019.225.225 0 0 0-.015-.045l.037-.034a.152.152 0 0 1 .114-.057h.067a.322.322 0 0 0-.062-.044l.107-.064.012-.01h.513a.172.172 0 0 0 .05.056.507.507 0 0 0 .3.089.379.379 0 0 0-.188.24zm.574.153a.418.418 0 0 1-.091.019.551.551 0 0 1-.4-.078.092.092 0 0 1-.021-.083c.023-.135.208-.224.3-.262a.116.116 0 0 0 .032.027.766.766 0 0 0 .472-.042c-.152.122-.324.286-.292.422zm.538-.066a.765.765 0 0 1-.44.09.054.054 0 0 1-.033-.035c-.042-.134.282-.379.5-.5a.976.976 0 0 0 .305.014c-.128.1-.309.252-.278.361a.1.1 0 0 0 .019.035c-.027.015-.05.028-.073.038zM19 7.77c-.005-.021-.023-.047-.082-.048a5.074 5.074 0 0 0-2.656 1.1 6.2 6.2 0 0 0-1.9 1.894c-.087.188.129.432.259.577l.031.035a.668.668 0 0 1 .125.78c-.248.772-.806.693-.94.661v.067a.861.861 0 0 0 1-.708.731.731 0 0 0-.139-.844l-.031-.035c-.111-.124-.317-.356-.248-.5.471-1.02 3.023-2.959 4.452-2.959h.054a11.826 11.826 0 0 1-2.324 1.5c-.681.369-1.019.554-1.019.554l-.026.014.012.028c.062.148-.305.524-.551.726l-.03.024.028.026c.147.134.014.391.013.394l-.014.027.026.017c.243.157.13.623.129.628v.013l.006.011a.676.676 0 0 1-.154.738l-.008.008v.012c-.046.463-.538.793-1.175.794v.067a1.845 1.845 0 0 0 .188-.01c.027.09.181.64.067.848a.127.127 0 0 1-.079.066.064.064 0 0 1-.062-.013.628.628 0 0 1-.114-.368v.311a.273.273 0 0 0 .072.108.13.13 0 0 0 .084.031.144.144 0 0 0 .038-.005.192.192 0 0 0 .12-.1.345.345 0 0 0 .03-.081c.017.1.037.2.059.312.021.135.041.272.055.4a.519.519 0 0 1-.107.37c-.036.044-.064.057-.073.058-.062 0-.2-.105-.273-.271v.138a.408.408 0 0 0 .273.2h.009a.209.209 0 0 0 .119-.082.585.585 0 0 0 .124-.328.6.6 0 0 0 .24.261.211.211 0 0 0 .144.033.175.175 0 0 0 .092-.1.734.734 0 0 0 .063-.4.452.452 0 0 0 .425.178.489.489 0 0 0 .1-.476.542.542 0 0 0 .5.133.108.108 0 0 0 .043-.079.807.807 0 0 0-.074-.454.686.686 0 0 0 .571.113.144.144 0 0 0 .029-.109 1.014 1.014 0 0 0-.132-.441 1.057 1.057 0 0 0 .5.091.117.117 0 0 0 .081-.04.232.232 0 0 0 .006-.164.837.837 0 0 0-.15-.337.944.944 0 0 0 .485.015.1.1 0 0 0 .06-.046c.035-.077-.064-.3-.176-.434a.668.668 0 0 0 .518-.164.2.2 0 0 0-.027-.159.692.692 0 0 0-.2-.241.743.743 0 0 0 .36-.152.159.159 0 0 0 .068-.112c0-.092-.2-.278-.388-.334.182-.054.421-.215.43-.307a.136.136 0 0 0-.048-.1.775.775 0 0 0-.35-.18c.171-.055.375-.223.379-.327a.128.128 0 0 0-.049-.09.657.657 0 0 0-.3-.15c.188-.062.408-.249.415-.345a.129.129 0 0 0-.05-.1.574.574 0 0 0-.263-.132l.1-.022a.823.823 0 0 0 .529-.4.109.109 0 0 0-.049-.089.588.588 0 0 0-.347-.111l.148-.064c.225-.1.42-.322.416-.426a.113.113 0 0 0-.045-.081.625.625 0 0 0-.365-.1l.04-.025c.938-.588.916-.676.903-.718zm-3.351 2.12c.087-.048.418-.228 1-.541l.153-.084a.942.942 0 0 1 .538-.06.052.052 0 0 1 .029.043c.019.178-.7.518-1.4.8-.156.05-.306.1-.427.149a.447.447 0 0 0 .107-.307zm-.208.417c.129-.045.318-.113.53-.2a1.675 1.675 0 0 1 .853-.141.046.046 0 0 1 .024.038c.007.094-.471.346-1.544.641l-.171.044a.265.265 0 0 0-.035-.053 3.366 3.366 0 0 0 .343-.329zm-.33.754a.525.525 0 0 0 .044-.3l.15-.041a2.809 2.809 0 0 1 1.19-.143.03.03 0 0 1 .015.024c.008.127-.548.306-1.182.437l-.206.036zm.069.072l.145-.028a1.956 1.956 0 0 1 .97-.011.052.052 0 0 1 .021.045c-.005.129-.319.2-.662.222h-.389a.51.51 0 0 0-.086-.228zm.107.695h.149a1.754 1.754 0 0 1 .788.145.052.052 0 0 1 .019.036.092.092 0 0 1-.038.078c-.148.117-.658.032-.9-.022a.57.57 0 0 0-.018-.237zm-.027-.071l-.012-.025a1.171 1.171 0 0 0 .025-.292c.1 0 .235 0 .379-.013a1.05 1.05 0 0 1 .571.111.045.045 0 0 1 .011.042c-.028.127-.422.175-.786.181a4.527 4.527 0 0 0-.189-.004zm.037.376c.264.071.809.245.886.4a.056.056 0 0 1 0 .049.094.094 0 0 1-.057.05 1.9 1.9 0 0 1-.914-.212l-.036-.016a.855.855 0 0 0 .124-.271zm-.212.395a.787.787 0 0 0 .055-.068l.036.016c.171.078.587.286.649.479a.12.12 0 0 1-.012.106.09.09 0 0 1-.065.041c-.158.027-.488-.176-.7-.327l-.027-.021a.767.767 0 0 0 .063-.226zm-.093.288l.018.013c.207.162.5.427.521.592a.1.1 0 0 1-.022.079.1.1 0 0 1-.084.035c-.125 0-.311-.166-.467-.331-.049-.064-.1-.122-.138-.17a.884.884 0 0 0 .171-.218zm-.231.268c.041.049.091.106.146.165a.967.967 0 0 1 .241.487.106.106 0 0 1-.037.081.083.083 0 0 1-.07.017c-.168-.026-.441-.377-.579-.577a1.207 1.207 0 0 0 .298-.173zm-.66.269a1.582 1.582 0 0 0 .293-.071c.115.207.315.615.267.767a.066.066 0 0 1-.036.044.1.1 0 0 1-.086 0c-.179-.08-.369-.54-.439-.741zm.687 1.765c-.021.042-.041.061-.051.064a.149.149 0 0 1-.093-.027.538.538 0 0 1-.244-.316 6.013 6.013 0 0 1-.087-.379c-.056-.357-.122-.692-.123-.7v-.034a.914.914 0 0 0 .327.423.167.167 0 0 0 .14 0l.018-.011a5.414 5.414 0 0 0 .152.521.642.642 0 0 1-.04.459zm.516-.248a.449.449 0 0 1-.4-.234 2.518 2.518 0 0 1-.185-.563.9.9 0 0 0-.115-.509.927.927 0 0 0 .422.339.164.164 0 0 0 .065 0c.079.167.17.356.253.522a.454.454 0 0 1-.044.445zm.6-.341a.484.484 0 0 1-.468-.181 4.539 4.539 0 0 1-.277-.482.172.172 0 0 0 .059-.126.584.584 0 0 0-.093-.289.579.579 0 0 0 .3.15.183.183 0 0 0 .053-.006c.1.135.218.284.327.422a.643.643 0 0 1 .095.512zm.529-.412a.7.7 0 0 1-.521-.146 3.9 3.9 0 0 1-.372-.408.178.178 0 0 0 .022-.02.161.161 0 0 0 .038-.131.751.751 0 0 0-.233-.361.723.723 0 0 0 .4.116.177.177 0 0 0 .048-.016c.131.131.285.277.435.407a.771.771 0 0 1 .178.559zm.46-.618a.243.243 0 0 1 .008.128.847.847 0 0 1-.581-.12 4.816 4.816 0 0 1-.455-.4l.009-.012a.186.186 0 0 0 .019-.162.7.7 0 0 0-.284-.3 1.67 1.67 0 0 0 .386.078c.183.119.338.212.464.283l.233.148a.619.619 0 0 1 .196.358zm.4-.393a.813.813 0 0 1-.563-.042 4.552 4.552 0 0 1-.239-.124l-.369-.236a.267.267 0 0 0 .032-.009.159.159 0 0 0 .094-.086.122.122 0 0 0 0-.105 1.011 1.011 0 0 0-.5-.3l.091.006c.29.109.885.332 1.215.462a.7.7 0 0 1 .238.434zm.307-.706a.188.188 0 0 1 .033.109.649.649 0 0 1-.556.107c-.1-.056-.668-.267-1.048-.4a.417.417 0 0 0 .215-.068.158.158 0 0 0 .063-.131.109.109 0 0 0-.021-.063c.321.066.727.145 1.029.191a.5.5 0 0 1 .285.255zm.229-.523c0 .01-.012.033-.045.061a.656.656 0 0 1-.459.137 49.681 49.681 0 0 1-1.431-.276c.206-.032.379-.091.4-.2a.112.112 0 0 0 0-.055l.377.012c.256.011.525.024.744.037a.574.574 0 0 1 .416.28zm.012-.7c.023.024.03.042.029.05a.767.767 0 0 1-.464.265c-.2.006-.469 0-.731 0l-.436-.018a.654.654 0 0 0-.259-.082c.218-.042.394-.116.4-.245a.117.117 0 0 0-.008-.047l.3-.035c.259-.026.522-.049.72-.059a.7.7 0 0 1 .452.168zm-.024-.6c.034.031.035.045.035.046a.577.577 0 0 1-.389.279c-.21.027-.5.061-.795.095l-.352.037a.862.862 0 0 0-.436-.057c.369-.1.7-.235.694-.378a7.163 7.163 0 0 1 .909-.151.539.539 0 0 1 .337.125zm.07-.586c.024.023.03.039.03.044a.693.693 0 0 1-.437.3 9.632 9.632 0 0 0-.947.189.943.943 0 0 0-.526-.015c.47-.158.918-.349.906-.5a.119.119 0 0 0-.005-.027l.186-.041c.166-.032.327-.06.447-.072a.5.5 0 0 1 .349.118zm.319-.637c.022.018.026.031.026.033a.838.838 0 0 1-.477.337l-.678.151-.219.045a.655.655 0 0 0-.4 0 3.146 3.146 0 0 0 .9-.52l.135-.047c.1-.029.2-.056.29-.077a.542.542 0 0 1 .426.074zm.172-.682a.054.054 0 0 1 .022.028c0 .063-.159.265-.377.363a7.712 7.712 0 0 1-.55.217l-.052.015a.123.123 0 0 0 .007-.054.119.119 0 0 0-.062-.094.59.59 0 0 0-.355 0c.277-.158.608-.353.923-.549l.051-.007a.6.6 0 0 1 .396.077zM5.979 8.493l.04.025a.625.625 0 0 0-.365.1.113.113 0 0 0-.044.082c0 .1.192.325.416.426l.148.064a.588.588 0 0 0-.347.111.109.109 0 0 0-.049.089.823.823 0 0 0 .529.4l.1.022a.574.574 0 0 0-.263.132.129.129 0 0 0-.05.1c.007.1.226.283.415.345a.657.657 0 0 0-.3.15.128.128 0 0 0-.049.09c0 .1.208.272.379.327a.775.775 0 0 0-.35.18.136.136 0 0 0-.048.1c.009.092.248.253.43.307-.192.056-.388.242-.388.334a.159.159 0 0 0 .068.112.743.743 0 0 0 .36.152.692.692 0 0 0-.2.241.2.2 0 0 0-.027.159.668.668 0 0 0 .516.159c-.112.134-.212.357-.176.434a.1.1 0 0 0 .06.046.944.944 0 0 0 .485-.015.837.837 0 0 0-.15.337.232.232 0 0 0 .006.164.117.117 0 0 0 .081.04 1.057 1.057 0 0 0 .5-.091 1.014 1.014 0 0 0-.132.441.144.144 0 0 0 .029.109.686.686 0 0 0 .571-.113.807.807 0 0 0-.074.454.108.108 0 0 0 .043.079.542.542 0 0 0 .5-.133.489.489 0 0 0 .1.476.452.452 0 0 0 .425-.178.734.734 0 0 0 .063.4.175.175 0 0 0 .092.1.211.211 0 0 0 .144-.033.6.6 0 0 0 .24-.261.585.585 0 0 0 .124.328.209.209 0 0 0 .119.082h.009a.408.408 0 0 0 .273-.2v-.138c-.072.166-.21.271-.273.271-.01 0-.037-.014-.073-.058a.519.519 0 0 1-.107-.37c.014-.123.034-.261.055-.4.022-.108.042-.215.059-.312a.345.345 0 0 0 .03.081.192.192 0 0 0 .12.1.144.144 0 0 0 .038.005.13.13 0 0 0 .084-.031.273.273 0 0 0 .072-.108v-.311a.628.628 0 0 1-.114.368.064.064 0 0 1-.062.013.127.127 0 0 1-.079-.066c-.114-.207.04-.758.067-.848a1.845 1.845 0 0 0 .188.01V13.3c-.637 0-1.129-.331-1.175-.794V12.5l-.008-.008a.676.676 0 0 1-.154-.738l.006-.011v-.013s-.113-.471.129-.628l.026-.017-.014-.027s-.134-.26.013-.394l.028-.026-.03-.024c-.246-.2-.613-.578-.551-.726l.012-.028-.026-.014s-.338-.185-1.019-.554a11.826 11.826 0 0 1-2.324-1.5h.05c1.429 0 3.982 1.94 4.452 2.959.069.149-.137.38-.248.5l-.031.035a.731.731 0 0 0-.139.844.861.861 0 0 0 1 .708v-.067c-.134.031-.692.111-.94-.661a.668.668 0 0 1 .125-.78l.031-.035c.129-.145.346-.388.259-.577a6.2 6.2 0 0 0-1.9-1.894 5.074 5.074 0 0 0-2.656-1.1c-.058 0-.077.027-.082.048-.005.04-.026.128.908.721zm2.568 1.7a7.814 7.814 0 0 0-.427-.149c-.708-.277-1.424-.617-1.4-.8a.052.052 0 0 1 .029-.043.942.942 0 0 1 .538.06l.153.084c.578.313.908.493 1 .541a.447.447 0 0 0 .107.307zm.435.448a.265.265 0 0 0-.035.053l-.171-.044c-1.074-.295-1.551-.548-1.544-.641a.046.046 0 0 1 .024-.038 1.675 1.675 0 0 1 .853.141c.212.082.4.151.53.2a3.366 3.366 0 0 0 .343.329zm-.025.431a5.901 5.901 0 0 0-.206-.036c-.634-.131-1.19-.31-1.182-.437a.03.03 0 0 1 .015-.024 2.809 2.809 0 0 1 1.19.143l.15.041a.525.525 0 0 0 .044.3zm-.143.291c-.1 0-.242-.008-.389 0-.343-.026-.656-.092-.662-.222a.052.052 0 0 1 .021-.045 1.956 1.956 0 0 1 .97.011l.145.028a.51.51 0 0 0-.085.228zm-.043.7c-.239.054-.749.138-.9.022a.092.092 0 0 1-.038-.078.052.052 0 0 1 .019-.036 1.754 1.754 0 0 1 .788-.145h.149a.57.57 0 0 0-.018.24zm-.141-.3c-.364-.007-.758-.054-.786-.181a.045.045 0 0 1 .011-.042 1.05 1.05 0 0 1 .571-.111c.144.011.281.013.379.013a1.171 1.171 0 0 0 .025.292l-.012.025a2.443 2.443 0 0 0-.188.002zm.27.637l-.036.016a1.9 1.9 0 0 1-.914.212.094.094 0 0 1-.057-.05.056.056 0 0 1 0-.049c.077-.155.622-.329.886-.4a.855.855 0 0 0 .121.271zm.157.35l-.027.021c-.211.15-.541.353-.7.327a.09.09 0 0 1-.065-.041.12.12 0 0 1-.012-.106c.062-.193.478-.4.649-.479l.036-.016c.024.033.045.056.055.068a.767.767 0 0 0 .065.23zm.2.279a3.536 3.536 0 0 0-.138.17c-.156.165-.342.326-.467.331a.1.1 0 0 1-.084-.035.1.1 0 0 1-.022-.079c.019-.165.314-.429.521-.592l.018-.013a.884.884 0 0 0 .176.223zm.356.222c-.138.2-.411.551-.579.577a.083.083 0 0 1-.07-.017.106.106 0 0 1-.037-.081.967.967 0 0 1 .241-.487 3.01 3.01 0 0 0 .146-.165 1.207 1.207 0 0 0 .303.178zm-.076.835a.1.1 0 0 1-.086 0 .066.066 0 0 1-.036-.044c-.048-.153.152-.56.267-.767a1.582 1.582 0 0 0 .293.071c-.065.207-.256.667-.433.745zm-.284.573a5.414 5.414 0 0 0 .152-.521l.018.011a.167.167 0 0 0 .14 0 .914.914 0 0 0 .327-.423v.034s-.067.34-.123.7a7.018 7.018 0 0 1-.087.379.538.538 0 0 1-.244.316.149.149 0 0 1-.093.027c-.01 0-.03-.022-.051-.064a.642.642 0 0 1-.034-.454zm-.527-.246c.082-.165.174-.355.253-.522a.164.164 0 0 0 .065 0 .927.927 0 0 0 .422-.339.9.9 0 0 0-.115.509 2.518 2.518 0 0 1-.185.563.449.449 0 0 1-.4.234.454.454 0 0 1-.035-.44zm-.453-.4c.11-.138.225-.287.327-.422a.183.183 0 0 0 .053.006.579.579 0 0 0 .3-.15.584.584 0 0 0-.093.289.172.172 0 0 0 .059.126 4.539 4.539 0 0 1-.277.482.484.484 0 0 1-.468.181.643.643 0 0 1 .104-.509zm-.44-.457c.15-.13.3-.277.435-.407a.177.177 0 0 0 .048.016.723.723 0 0 0 .4-.116.751.751 0 0 0-.233.361.161.161 0 0 0 .038.131.178.178 0 0 0 .022.02 3.9 3.9 0 0 1-.372.408.7.7 0 0 1-.521.146.771.771 0 0 1 .188-.556zm-.447-.415L7.624 13c.127-.071.281-.163.464-.283a1.67 1.67 0 0 0 .386-.078.7.7 0 0 0-.284.3.186.186 0 0 0 .019.162l.009.012a4.816 4.816 0 0 1-.455.4.847.847 0 0 1-.581.12.243.243 0 0 1 .008-.128.619.619 0 0 1 .201-.361zm-.361-.472c.33-.13.925-.354 1.215-.462l.091-.006a1.011 1.011 0 0 0-.5.3.122.122 0 0 0 0 .105.159.159 0 0 0 .094.086.267.267 0 0 0 .032.009l-.369.236c-.1.053-.174.094-.239.124a.813.813 0 0 1-.563.042.7.7 0 0 1 .243-.431zm-.266-.536c.3-.046.707-.125 1.029-.191a.109.109 0 0 0-.021.063.158.158 0 0 0 .063.131.417.417 0 0 0 .215.068c-.38.138-.952.348-1.048.4a.649.649 0 0 1-.556-.107.188.188 0 0 1 .033-.109.5.5 0 0 1 .289-.251zm-.1-.548c.219-.013.489-.026.744-.037l.377-.012a.112.112 0 0 0 0 .055c.024.11.2.169.4.2-.265.055-.924.19-1.431.276a.656.656 0 0 1-.459-.137c-.033-.029-.045-.051-.045-.061a.574.574 0 0 1 .415-.28zM6.68 11c.2.01.461.033.72.059l.3.035a.117.117 0 0 0-.008.047c.005.129.181.2.4.245a.654.654 0 0 0-.259.082l-.436.018a9.856 9.856 0 0 1-.731 0 .767.767 0 0 1-.464-.265c0-.009.006-.026.029-.05A.7.7 0 0 1 6.68 11zm-.086-.558a7.163 7.163 0 0 1 .909.151c-.01.144.324.276.694.378a.862.862 0 0 0-.436.057l-.352-.037c-.29-.033-.585-.068-.795-.095a.577.577 0 0 1-.389-.279s0-.015.035-.046a.539.539 0 0 1 .334-.129zm-.056-.577c.12.012.281.04.447.072l.186.041a.119.119 0 0 0-.006.022c-.012.153.436.344.906.5a.943.943 0 0 0-.526.015 9.632 9.632 0 0 0-.947-.189.693.693 0 0 1-.437-.3c0-.005.005-.021.03-.044a.5.5 0 0 1 .347-.118zm-.243-.6c.088.021.188.047.29.077l.135.047a3.146 3.146 0 0 0 .9.52.655.655 0 0 0-.4 0L7 9.871l-.678-.151a.838.838 0 0 1-.477-.337s0-.015.026-.033a.542.542 0 0 1 .424-.083zm-.2-.678l.051.007c.315.2.647.391.923.549a.59.59 0 0 0-.355 0 .119.119 0 0 0-.062.094.123.123 0 0 0 .007.054L6.6 9.28a7.712 7.712 0 0 1-.55-.217c-.218-.1-.379-.3-.377-.363a.054.054 0 0 1 .027-.032.6.6 0 0 1 .393-.079zM13.706 12.607a2.853 2.853 0 0 0-.274-.542c-.015-.045-.031-.084-.043-.114a.216.216 0 0 0-.022-.052v-.008a.375.375 0 0 0-.049-.06 1.753 1.753 0 0 1-.151-.872 1.448 1.448 0 0 0 .015-.378.5.5 0 0 1 .007-.185.361.361 0 0 1 .093-.092l.032-.022-.027-.028A1.814 1.814 0 0 0 12.2 9.8c-.627-.071-.8.109-.838.171a.767.767 0 0 0-.549.282.431.431 0 0 0 .029.418l.024.047.032-.042a.262.262 0 0 1 .173-.093.685.685 0 0 1-.033.468l-.021.034c-.108.177-.308.506-.084.781a1.19 1.19 0 0 0-.117.161.635.635 0 0 0-.064.142l-.04.034c-.3.275-.34.366-.343.41v.036h3.361zm-2.447-.473v-.037a.965.965 0 0 0 .35-.277.455.455 0 0 0 .009.285.113.113 0 0 0 .026.03c-.033.118-.129.356-.271.348-.108-.008-.119-.261-.114-.349zm2.1-.072c.052.146.092.314.052.376a.054.054 0 0 1-.05.023c-.147 0-.275-.348-.312-.482v-.012a.289.289 0 0 0 .149.111.182.182 0 0 0 .163-.016zm-2.356-1.532h.007l.036-.014v.009a.291.291 0 0 0-.041.006zm-.025-.062a.271.271 0 0 0-.115.1.327.327 0 0 1 0-.281c.118-.213.511-.249.515-.25h.02l.008-.019s.1-.225.779-.148a1.869 1.869 0 0 1 1.016.4.354.354 0 0 0-.08.089.464.464 0 0 0-.016.221 1.4 1.4 0 0 1-.014.361 1.718 1.718 0 0 0 .169.933c.056.057.074.108.061.13s-.043.027-.113.01c-.115-.028-.214-.254-.243-.339l-.059-.175-.006.184c0 .1-.037.37-.148.382-.079.008-.172-.209-.214-.367l-.042-.162-.023.166c-.022.158-.088.388-.163.388-.124-.006-.187-.3-.2-.4l-.015-.132-.049.123c-.048.122-.2.432-.344.409a.04.04 0 0 1-.029-.021.657.657 0 0 1 .035-.373l.058-.177-.115.146c-.14.177-.383.416-.461.366a.067.067 0 0 1-.024-.054c-.005-.063.026-.249.424-.609.183-.166.288-.3.244-.47-.024-.093-.147-.178-.289-.243 0-.04-.008-.074-.012-.1a2.647 2.647 0 0 1 .293.117l.05.023v-.055a.371.371 0 0 0-.308-.313l-.016.065a.325.325 0 0 1 .243.192 1.043 1.043 0 0 0-.815-.117zm2.013 1.418l-.008.1c-.015.195-.075.485-.158.488-.152 0-.183-.31-.183-.313l-.008-.1a.154.154 0 0 0 .133.071c.124-.014.174-.185.194-.312a.333.333 0 0 0 .032.066zm-.389.137l-.03.132c-.02.088-.1.342-.211.349-.1 0-.162-.268-.179-.4v-.024a.18.18 0 0 0 .131.077h.005c.111 0 .173-.178.2-.313a.92.92 0 0 0 .082.18zm-.467-.009l-.021.087c-.027.112-.127.4-.268.4-.086 0-.122-.212-.129-.345.151 0 .28-.216.346-.351a.882.882 0 0 0 .074.21zm-.693-.837a.809.809 0 0 0 .109-.445c.113.055.2.12.22.183.031.12-.028.226-.225.4a2.731 2.731 0 0 0-.222.224.6.6 0 0 1 .119-.361zm-.373-.054l.021-.034a.8.8 0 0 0 .026-.578.756.756 0 0 1 .35.037.888.888 0 0 1-.08.593.644.644 0 0 0-.126.421l-.3.244c-.16-.233.007-.513.11-.682zm-.2.942a1.357 1.357 0 0 1 .331-.358.462.462 0 0 0-.1.277.134.134 0 0 0 .054.1.1.1 0 0 0 .043.015l-.006.019c-.031.1-.139.347-.272.347h-.006a.119.119 0 0 1-.1-.068.358.358 0 0 1 .056-.332zm-.423.521a1.621 1.621 0 0 1 .283-.307.289.289 0 0 0 .029.153.186.186 0 0 0 .155.1c.13.007.227-.132.284-.247.013.116.055.253.174.261.146.01.24-.142.293-.266.019.13.067.288.184.288.147 0 .243-.187.292-.322.032.136.1.322.22.322h.007c.115-.007.191-.153.233-.267.031.109.1.244.23.237s.179-.233.2-.4c.06.158.173.385.327.386a.118.118 0 0 0 .105-.053.287.287 0 0 0 .021-.188c.06.115.111.235.137.3z" transform="translate(-.1 -.1)"/><path class="cls-1" d="M1.368 9.436L1.6 8.7a.686.686 0 0 1 .143-.26.615.615 0 0 1 .3-.169.717.717 0 0 1 .4.021.864.864 0 0 1 .3.163.536.536 0 0 1 .146.2.643.643 0 0 1 .049.268 1.015 1.015 0 0 1-.056.279l-.211.657-.067-.021.055-.138a.127.127 0 0 0 .008-.075.059.059 0 0 0-.041-.035l-1.059-.338a.056.056 0 0 0-.051.007.1.1 0 0 0-.035.053l-.047.145zm.232-.493a.105.105 0 0 0 0 .069.065.065 0 0 0 .044.037l1.049.338a.058.058 0 0 0 .056-.008.157.157 0 0 0 .039-.079l.039-.121a.546.546 0 0 0 .014-.309.34.34 0 0 0-.106-.17.914.914 0 0 0-.33-.169.8.8 0 0 0-.522-.031.408.408 0 0 0-.232.277zM1.959 7.72l.533-1.056.429.185-.03.06a.589.589 0 0 0-.333-.025.306.306 0 0 0-.181.163l-.132.261a.074.074 0 0 0-.008.056.073.073 0 0 0 .04.041l.439.222.058-.114a.218.218 0 0 0 .014-.179.314.314 0 0 0-.156-.156l.031-.062.571.288-.034.062a.342.342 0 0 0-.235-.04.231.231 0 0 0-.141.127l-.053.1.49.247a.053.053 0 0 0 .051 0 .125.125 0 0 0 .047-.057l.1-.206q.169-.335-.2-.587l.041-.06.448.254-.554 1.1-.063-.032.046-.091a.139.139 0 0 0 .023-.085.067.067 0 0 0-.039-.047L2.18 7.6a.067.067 0 0 0-.058-.006.1.1 0 0 0-.046.051l-.055.109zM2.731 6.228l.422-.6a.6.6 0 0 1 .3-.252.333.333 0 0 1 .3.05.3.3 0 0 1 .147.244.673.673 0 0 1-.135.406l-.153.218.388.27a.073.073 0 0 0 .06.016.118.118 0 0 0 .062-.049l.1-.139.057.04-.411.587-.057-.04.086-.123a.106.106 0 0 0 .024-.063.053.053 0 0 0-.024-.042l-.9-.632a.069.069 0 0 0-.065-.013.184.184 0 0 0-.072.071l-.063.09zm.824.027l.116-.166a.419.419 0 0 0 .1-.27.31.31 0 0 0-.152-.21.361.361 0 0 0-.172-.074.229.229 0 0 0-.142.038.688.688 0 0 0-.165.181.311.311 0 0 0-.065.127.076.076 0 0 0 .039.063zM3.962 4.513l.047-.049 1.282.49a.129.129 0 0 0 .147-.042l.032-.033.051.049-.412.429-.051-.049.033-.034a.326.326 0 0 0 .077-.108.042.042 0 0 0-.011-.047.092.092 0 0 0-.03-.019l-.3-.114-.409.426.073.166a.306.306 0 0 0 .058.093.1.1 0 0 0 .088.021.229.229 0 0 0 .116-.074l.035-.036.051.049-.375.39-.051-.049a.237.237 0 0 0 .07-.123.308.308 0 0 0-.032-.159zm.172.206l.258.62.365-.38zM4.805 3.729l.618-.46a.562.562 0 0 1 .335-.132.3.3 0 0 1 .247.125.282.282 0 0 1 .058.16.337.337 0 0 1-.045.176.954.954 0 0 1-.2.222.737.737 0 0 1 .2-.061.269.269 0 0 1 .124.021 1.006 1.006 0 0 1 .2.137.494.494 0 0 0 .152.1.062.062 0 0 0 .087-.075.338.338 0 0 0-.063-.14l.055-.041q.174.266-.014.406a.231.231 0 0 1-.123.048.21.21 0 0 1-.126-.033 1.375 1.375 0 0 1-.2-.184.457.457 0 0 0-.144-.113.228.228 0 0 0-.132-.006.4.4 0 0 0-.152.074l-.1.073.324.435a.056.056 0 0 0 .044.028.129.129 0 0 0 .071-.031l.115-.085.042.056-.556.414-.042-.056.117-.087a.115.115 0 0 0 .046-.057.058.058 0 0 0-.011-.053l-.65-.89a.063.063 0 0 0-.05-.029.115.115 0 0 0-.067.028l-.117.087zm.744.238l.142-.105a.528.528 0 0 0 .186-.216.238.238 0 0 0-.051-.237.336.336 0 0 0-.133-.116.2.2 0 0 0-.131-.01.81.81 0 0 0-.208.126.407.407 0 0 0-.109.1.055.055 0 0 0 .009.059zM6.247 2.747l1.069-.569.271.447-.061.033q-.277-.374-.534-.237a.127.127 0 0 0-.062.054.077.077 0 0 0 .01.065l.519.975a.058.058 0 0 0 .042.034.118.118 0 0 0 .069-.019l.13-.072.033.062-.612.326-.031-.062.151-.084a.077.077 0 0 0 .039-.039.053.053 0 0 0 0-.046l-.53-.985a.064.064 0 0 0-.05-.036.121.121 0 0 0-.074.019.3.3 0 0 0-.155.228.744.744 0 0 0 .054.348l-.065.035zM7.638 2.026l.471-.157.768.894.044-1.163.479-.162.022.066-.118.039a.153.153 0 0 0-.078.045.074.074 0 0 0 0 .066l.346 1.038a.057.057 0 0 0 .042.039.181.181 0 0 0 .095-.013l.108-.036.022.066-.648.216L9.17 2.9l.121-.04a.138.138 0 0 0 .071-.044.058.058 0 0 0 .009-.055L9 1.646l-.053 1.4-.064.021L7.966 2l.317.953a.288.288 0 0 0 .065.119.165.165 0 0 0 .087.043.384.384 0 0 0 .15-.019l.022.066-.534.178-.021-.07a.307.307 0 0 0 .161-.112.223.223 0 0 0-.005-.172l-.3-.9a.059.059 0 0 0-.038-.042.162.162 0 0 0-.087.012l-.121.04zM9.752 1.382l1.169-.175.1.457-.067.01a.59.59 0 0 0-.172-.286.306.306 0 0 0-.238-.053l-.289.043a.063.063 0 0 0-.06.082l.073.487.126-.019a.218.218 0 0 0 .155-.092.314.314 0 0 0 .037-.217l.069-.01.095.633-.069.01a.342.342 0 0 0-.1-.215.231.231 0 0 0-.185-.042l-.115.017.081.543a.053.053 0 0 0 .028.042.125.125 0 0 0 .074.005l.228-.034q.372-.056.363-.5l.072-.011.051.513-1.216.182-.01-.069.1-.015a.138.138 0 0 0 .08-.031.067.067 0 0 0 .016-.059L9.98 1.491a.067.067 0 0 0-.029-.05.1.1 0 0 0-.068-.008l-.121.018zM11.332 1.159l.356.006.882 1.1.013-.785a.235.235 0 0 0-.056-.177.226.226 0 0 0-.159-.057v-.07l.522.008v.07a.269.269 0 0 0-.12.019.173.173 0 0 0-.07.074.243.243 0 0 0-.031.118l-.018 1.1h-.095l-.913-1.145-.014.834a.216.216 0 0 0 .059.17.284.284 0 0 0 .19.061v.07l-.569-.009V2.47a.245.245 0 0 0 .17-.062.2.2 0 0 0 .065-.149l.015-.935-.017-.018a.316.316 0 0 0-.071-.061.185.185 0 0 0-.071-.015h-.067zM13.154 1.217l1.2.194-.055.52-.069-.011q.006-.466-.281-.512a.127.127 0 0 0-.082.006.078.078 0 0 0-.031.057l-.177 1.09a.058.058 0 0 0 .013.052.118.118 0 0 0 .066.027l.148.024-.011.069-.684-.111.011-.069.169.028a.077.077 0 0 0 .054-.007.053.053 0 0 0 .025-.039l.18-1.105a.064.064 0 0 0-.014-.057.122.122 0 0 0-.071-.03.3.3 0 0 0-.261.087.744.744 0 0 0-.168.31l-.073-.012zM15.919 1.872a.715.715 0 0 1 .3.213.662.662 0 0 1 .148.333.786.786 0 0 1-.269.694.671.671 0 0 1-.334.149.694.694 0 0 1-.358-.039.662.662 0 0 1-.281-.207.677.677 0 0 1-.142-.334.754.754 0 0 1 .047-.385.737.737 0 0 1 .219-.309.672.672 0 0 1 .328-.148.657.657 0 0 1 .342.033zm-.011.073a.39.39 0 0 0-.352.026.789.789 0 0 0-.292.416.79.79 0 0 0-.068.523.4.4 0 0 0 .238.244.4.4 0 0 0 .235.022.434.434 0 0 0 .219-.135.976.976 0 0 0 .187-.322 1.1 1.1 0 0 0 .089-.382.424.424 0 0 0-.07-.249.4.4 0 0 0-.186-.143zM16.885 2.315l1.053.6-.22.425-.06-.035a.594.594 0 0 0 .046-.344.394.394 0 0 0-.194-.211l-.21-.116a.073.073 0 0 0-.052-.012.061.061 0 0 0-.037.032l-.248.434.111.064a.227.227 0 0 0 .18.028.3.3 0 0 0 .16-.141l.063.036-.309.541-.063-.036a.346.346 0 0 0 .05-.226.221.221 0 0 0-.115-.142l-.111-.064-.261.457a.079.079 0 0 0-.012.069.138.138 0 0 0 .063.058l.135.077-.035.061-.619-.356.035-.061.133.076a.1.1 0 0 0 .066.018.072.072 0 0 0 .045-.039l.545-.954a.063.063 0 0 0 .009-.056.123.123 0 0 0-.055-.05l-.127-.073zM19.257 4.084l.147-.032.056.048-.324.386-.05-.043a.666.666 0 0 0 .08-.377.418.418 0 0 0-.144-.265.319.319 0 0 0-.213-.086.231.231 0 0 0-.182.082.21.21 0 0 0-.051.109.232.232 0 0 0 .02.124 1.139 1.139 0 0 0 .14.208 1.5 1.5 0 0 1 .2.3.372.372 0 0 1 .029.2.334.334 0 0 1-.082.171.4.4 0 0 1-.3.146.5.5 0 0 1-.346-.135.618.618 0 0 1-.214-.367l-.17.023-.055-.047.349-.406.055.047a.594.594 0 0 0-.084.389.493.493 0 0 0 .168.313.358.358 0 0 0 .238.1.253.253 0 0 0 .2-.089.2.2 0 0 0 .049-.111.264.264 0 0 0-.03-.137 1.831 1.831 0 0 0-.175-.259.946.946 0 0 1-.176-.312.318.318 0 0 1 .08-.287.388.388 0 0 1 .29-.144.454.454 0 0 1 .319.121.519.519 0 0 1 .115.14.64.64 0 0 1 .061.19zM19.738 4.383l.806.9-.37.369-.046-.052q.3-.358.1-.575a.127.127 0 0 0-.067-.048.077.077 0 0 0-.06.025l-.825.734a.058.058 0 0 0-.023.049.118.118 0 0 0 .034.063l.1.112-.052.047-.461-.518.052-.047.114.128a.077.077 0 0 0 .047.029.053.053 0 0 0 .043-.014l.836-.745a.064.064 0 0 0 .025-.053.121.121 0 0 0-.036-.068.3.3 0 0 0-.258-.1.744.744 0 0 0-.325.134l-.049-.055zM21.1 6.035l.037.056-.757 1.144a.129.129 0 0 0 .009.153l.026.039-.058.039-.328-.5.058-.039.026.04a.325.325 0 0 0 .088.1.042.042 0 0 0 .048 0 .091.091 0 0 0 .024-.024l.177-.265-.326-.492-.178.035a.305.305 0 0 0-.1.036.1.1 0 0 0-.04.082.229.229 0 0 0 .046.13l.028.042-.058.039-.3-.451.058-.039a.237.237 0 0 0 .1.1.307.307 0 0 0 .162 0zm-.238.122l-.661.116.291.439zM21.6 6.894l.517 1.1-.46.249-.03-.063q.387-.259.263-.522a.127.127 0 0 0-.051-.065.077.077 0 0 0-.065.007l-1 .471a.058.058 0 0 0-.036.04.119.119 0 0 0 .015.07l.064.136-.063.03-.3-.627.063-.03.073.155a.077.077 0 0 0 .037.041.053.053 0 0 0 .046 0L21.7 7.4a.064.064 0 0 0 .039-.044.122.122 0 0 0-.015-.075.3.3 0 0 0-.22-.166.744.744 0 0 0-.35.037l-.031-.067zM22.244 8.312l.345 1.131-.437.163-.02-.065a.589.589 0 0 0 .258-.212.306.306 0 0 0 .018-.243l-.085-.279a.063.063 0 0 0-.09-.047l-.471.144.037.122a.218.218 0 0 0 .114.139.314.314 0 0 0 .22 0l.02.067-.612.187-.02-.067a.342.342 0 0 0 .2-.133.231.231 0 0 0 .014-.189l-.035-.107-.525.16a.053.053 0 0 0-.037.034.125.125 0 0 0 .006.074l.067.221q.11.359.552.285l.021.069-.5.126-.359-1.176.067-.02.03.1a.138.138 0 0 0 .043.074.067.067 0 0 0 .06.007l1.047-.319a.067.067 0 0 0 .046-.036.1.1 0 0 0 0-.069l-.036-.117z" transform="translate(-.1 -.1)"/><path class="cls-1" d="M1.645 10.063l.12.359.379-.009-.263.229.129.405-.329-.215-.347.221.13-.383-.302-.234.371-.009.112-.364zM22.066 10.265l.12.358.379-.008-.263.228.129.405-.329-.215-.347.221.13-.383-.302-.234.371-.008.112-.364z"/><path class="cls-1" d="M2.408 11.719l.022.616h-.068v-.124a.112.112 0 0 0-.019-.069.06.06 0 0 0-.05-.018l-.753.027a.585.585 0 0 0-.178.027.272.272 0 0 0-.139.117.384.384 0 0 0-.046.215.379.379 0 0 0 .1.274.338.338 0 0 0 .256.086l.613-.022a.507.507 0 0 0 .123-.016.158.158 0 0 0 .064-.035.127.127 0 0 0 .033-.055.365.365 0 0 0 .007-.109h.068l.018.5h-.068v-.036a.163.163 0 0 0-.05-.125.19.19 0 0 0-.134-.037l-.656.024a.429.429 0 0 1-.334-.111.516.516 0 0 1-.142-.363.713.713 0 0 1 .045-.314.35.35 0 0 1 .156-.171.464.464 0 0 1 .2-.046l.806-.029a.06.06 0 0 0 .047-.023.1.1 0 0 0 .015-.064v-.127zM2.489 13.364l.065.312-.863 1 .743-.155a.239.239 0 0 0 .155-.086.193.193 0 0 0 .022-.15l.066-.014.1.458-.066.014a.225.225 0 0 0-.041-.1.163.163 0 0 0-.083-.046.252.252 0 0 0-.118 0l-1.038.216-.021-.083.9-1.038-.789.164a.219.219 0 0 0-.148.087.242.242 0 0 0-.02.178l-.066.014-.1-.5.066-.014a.211.211 0 0 0 .092.136.2.2 0 0 0 .153.025l.885-.184.014-.019a.29.29 0 0 0 .044-.074.156.156 0 0 0 0-.069l-.012-.059zM2.849 14.905l.2.582-.064.022-.035-.1q-.023-.067-.046-.078a.106.106 0 0 0-.076.007l-.955.331q-.057.02-.066.04a.114.114 0 0 0 .006.081l.039.112-.064.022-.2-.582.064-.022.038.11q.02.058.043.069a.117.117 0 0 0 .08-.009l.955-.331q.055-.019.062-.039a.152.152 0 0 0-.011-.095l-.034-.1zM3.125 15.7l.468.978-.444.241-.027-.056q.375-.248.262-.483a.107.107 0 0 0-.047-.057.078.078 0 0 0-.062.008l-.962.461a.058.058 0 0 0-.035.038.1.1 0 0 0 .013.063l.058.121-.061.029-.268-.559.061-.029.066.138a.066.066 0 0 0 .034.036.053.053 0 0 0 .044 0l.976-.467a.064.064 0 0 0 .038-.041.1.1 0 0 0-.013-.068.26.26 0 0 0-.206-.144.757.757 0 0 0-.335.045l-.028-.059zM3.734 16.926l.59.878-.36.272-.034-.05a.594.594 0 0 0 .184-.261.263.263 0 0 0-.043-.216l-.146-.217a.063.063 0 0 0-.041-.03.074.074 0 0 0-.053.016l-.395.265.064.095a.188.188 0 0 0 .138.087.319.319 0 0 0 .2-.062l.035.052-.513.345-.035-.052a.348.348 0 0 0 .148-.174.2.2 0 0 0-.033-.168l-.058-.087-.441.3a.053.053 0 0 0-.026.041.1.1 0 0 0 .023.062l.115.171q.187.279.573.082l.036.054-.426.259-.613-.914.056-.038.051.076a.117.117 0 0 0 .057.052.067.067 0 0 0 .057-.012l.878-.59a.067.067 0 0 0 .033-.045.087.087 0 0 0-.019-.059l-.061-.091zM4.517 18.066l.469.506a.575.575 0 0 1 .138.228.569.569 0 0 1-.013.322.736.736 0 0 1-.214.326.893.893 0 0 1-.276.18.519.519 0 0 1-.231.036.563.563 0 0 1-.237-.073.846.846 0 0 1-.194-.165l-.42-.453.05-.046.086.093a.107.107 0 0 0 .056.038.059.059 0 0 0 .048-.019l.789-.731a.055.055 0 0 0 .019-.045.083.083 0 0 0-.025-.052l-.093-.1zm.279.4a.089.089 0 0 0-.053-.032.065.065 0 0 0-.051.021l-.781.724a.057.057 0 0 0-.021.05.133.133 0 0 0 .04.068l.077.084a.461.461 0 0 0 .239.143.324.324 0 0 0 .185-.017.947.947 0 0 0 .3-.2.821.821 0 0 0 .28-.418.352.352 0 0 0-.108-.309zM6.585 20.073l.134-.047.054.038-.278.4-.048-.035a.659.659 0 0 0 .055-.362.358.358 0 0 0-.145-.23.273.273 0 0 0-.2-.055.23.23 0 0 0-.163.1.215.215 0 0 0-.042.108.213.213 0 0 0 .024.114.961.961 0 0 0 .138.178 1.267 1.267 0 0 1 .2.262.322.322 0 0 1-.03.349.4.4 0 0 1-.273.173.43.43 0 0 1-.324-.086.528.528 0 0 1-.215-.318l-.155.042-.053-.038.3-.421.053.038a.588.588 0 0 0-.058.373.423.423 0 0 0 .17.273.306.306 0 0 0 .223.062.253.253 0 0 0 .18-.107.2.2 0 0 0 .04-.11.24.24 0 0 0-.034-.124 1.551 1.551 0 0 0-.173-.222.809.809 0 0 1-.177-.271.318.318 0 0 1 .06-.278.385.385 0 0 1 .558-.094.433.433 0 0 1 .113.117.565.565 0 0 1 .066.171zM7.157 20.274l.943.535-.226.452-.054-.031q.166-.417-.06-.546a.107.107 0 0 0-.071-.02.078.078 0 0 0-.046.042l-.527.928a.058.058 0 0 0-.007.051.1.1 0 0 0 .047.044l.117.066-.033.059-.54-.306.033-.059.133.076a.066.066 0 0 0 .048.01.053.053 0 0 0 .034-.027l.534-.941a.064.064 0 0 0 .008-.055.1.1 0 0 0-.05-.052.26.26 0 0 0-.251 0 .757.757 0 0 0-.249.228l-.057-.028zM8.738 20.982l.057.018.036 1.311a.114.114 0 0 0 .086.11l.039.014-.023.064-.5-.181.023-.064.04.014a.272.272 0 0 0 .117.023.041.041 0 0 0 .035-.029.094.094 0 0 0 .005-.033l-.008-.3-.5-.179-.113.132a.314.314 0 0 0-.058.089.093.093 0 0 0 .013.085.194.194 0 0 0 .1.07l.042.015-.019.059-.455-.164.023-.064a.2.2 0 0 0 .127.01.3.3 0 0 0 .122-.093zm-.112.233l-.427.478.443.16zM9.488 21.321l1.064.209-.071.5-.061-.012q.025-.449-.23-.5a.107.107 0 0 0-.074 0 .078.078 0 0 0-.031.055L9.88 22.62a.058.058 0 0 0 .009.051.1.1 0 0 0 .058.027l.132.026-.013.066-.609-.119.013-.066.151.03a.066.066 0 0 0 .049-.006.053.053 0 0 0 .024-.037l.206-1.058a.064.064 0 0 0-.01-.055.1.1 0 0 0-.062-.03.26.26 0 0 0-.238.079.757.757 0 0 0-.164.3l-.065-.013zM10.883 21.564l1.057.052v.451h-.06a.594.594 0 0 0-.1-.3.263.263 0 0 0-.2-.095l-.261-.013a.063.063 0 0 0-.049.015.074.074 0 0 0-.019.051l-.023.475.114.006a.188.188 0 0 0 .152-.058.319.319 0 0 0 .072-.2h.062l-.03.618h-.062a.349.349 0 0 0-.052-.223.2.2 0 0 0-.155-.074l-.1-.005-.026.53a.053.053 0 0 0 .017.045.105.105 0 0 0 .064.019l.206.01q.336.017.408-.41h.065l-.047.5-1.1-.054v-.068h.091a.117.117 0 0 0 .076-.015.067.067 0 0 0 .024-.053l.052-1.057a.067.067 0 0 0-.016-.053.087.087 0 0 0-.059-.02l-.109-.005zM13.093 21.641l.071-.123.066-.006.049.484-.061.004a.659.659 0 0 0-.194-.311.358.358 0 0 0-.26-.08.273.273 0 0 0-.188.088.23.23 0 0 0-.06.18.215.215 0 0 0 .039.109.213.213 0 0 0 .093.071.96.96 0 0 0 .221.045 1.269 1.269 0 0 1 .32.07.322.322 0 0 1 .2.284.4.4 0 0 1-.094.309.43.43 0 0 1-.3.146.528.528 0 0 1-.37-.1l-.091.133-.065.006-.046-.515.065-.006a.588.588 0 0 0 .2.321.423.423 0 0 0 .307.1.306.306 0 0 0 .21-.1.253.253 0 0 0 .067-.2.2.2 0 0 0-.041-.109.239.239 0 0 0-.107-.072 1.549 1.549 0 0 0-.276-.056.808.808 0 0 1-.311-.09.317.317 0 0 1-.136-.25.385.385 0 0 1 .363-.435.433.433 0 0 1 .162.015.564.564 0 0 1 .167.088zM14.7 21.171a.6.6 0 0 1 .329-.007.618.618 0 0 1 .293.17.814.814 0 0 1 .208.688.627.627 0 0 1-.148.307.586.586 0 0 1-.272.176.559.559 0 0 1-.314 0 .634.634 0 0 1-.289-.175.776.776 0 0 1-.187-.323.757.757 0 0 1-.024-.364.629.629 0 0 1 .144-.3.556.556 0 0 1 .26-.172zm.034.062a.34.34 0 0 0-.23.223 1.123 1.123 0 0 0 .285.93.354.354 0 0 0 .481-.068.417.417 0 0 0 .076-.23 1.012 1.012 0 0 0-.054-.355 1.146 1.146 0 0 0-.155-.345.409.409 0 0 0-.191-.151.337.337 0 0 0-.208-.004zM15.59 20.9l.98-.469.216.409-.056.027a.6.6 0 0 0-.239-.23.335.335 0 0 0-.257.03l-.193.092a.052.052 0 0 0-.029.08l.208.436.1-.05a.2.2 0 0 0 .11-.123.3.3 0 0 0-.029-.2l.059-.028.26.543-.059.028a.352.352 0 0 0-.148-.167.19.19 0 0 0-.165.008l-.1.05.22.459a.08.08 0 0 0 .047.048.117.117 0 0 0 .076-.016l.125-.06.029.061-.579.277-.029-.061.124-.059a.085.085 0 0 0 .046-.041.073.073 0 0 0-.008-.057l-.458-.958a.063.063 0 0 0-.039-.038.1.1 0 0 0-.065.014l-.118.056zM17.672 19.662l.048-.037 1.119.684a.114.114 0 0 0 .139-.013l.033-.025.041.054-.424.322-.041-.054.034-.026a.273.273 0 0 0 .083-.085.041.041 0 0 0 0-.045.1.1 0 0 0-.025-.022l-.259-.159-.421.319.049.167a.314.314 0 0 0 .043.1.093.093 0 0 0 .079.036.193.193 0 0 0 .114-.047l.036-.027.041.054-.385.292-.041-.054a.2.2 0 0 0 .077-.1.3.3 0 0 0-.012-.153zm.134.221l.168.619.376-.285zM18.357 19.18l.3-.325 1.044.426-.522-.987.31-.333.05.046-.076.081a.129.129 0 0 0-.041.07.074.074 0 0 0 .03.055l.774.72a.056.056 0 0 0 .052.015.152.152 0 0 0 .07-.05l.07-.075.05.046-.416.447-.052-.044.078-.084a.117.117 0 0 0 .036-.066.058.058 0 0 0-.019-.05l-.83-.772.627 1.187-.041.045-1.248-.512.71.661a.3.3 0 0 0 .11.072.154.154 0 0 0 .09 0 .321.321 0 0 0 .111-.078l.05.046-.343.369-.05-.046a.261.261 0 0 0 .075-.159.226.226 0 0 0-.087-.141l-.674-.627a.059.059 0 0 0-.051-.019.135.135 0 0 0-.064.046l-.077.083zM19.649 17.721l.577-.887.391.224-.033.051a.594.594 0 0 0-.312-.067.264.264 0 0 0-.182.124l-.142.219a.062.062 0 0 0-.012.049.074.074 0 0 0 .035.042l.4.259.062-.1a.188.188 0 0 0 .026-.161.32.32 0 0 0-.136-.162l.034-.052.518.337-.034.052a.348.348 0 0 0-.218-.067.2.2 0 0 0-.142.1l-.057.088.445.289a.053.053 0 0 0 .048.008.1.1 0 0 0 .048-.046l.113-.173q.183-.282-.149-.559l.035-.054.4.29-.6.922-.057-.037.05-.076a.117.117 0 0 0 .025-.073.067.067 0 0 0-.033-.047l-.887-.577a.067.067 0 0 0-.054-.013.087.087 0 0 0-.047.041l-.06.092zM20.379 16.571l.285-.628a.476.476 0 0 1 .211-.246.3.3 0 0 1 .264 0 .288.288 0 0 1 .125.1.308.308 0 0 1 .048.161.8.8 0 0 1-.053.261.628.628 0 0 1 .136-.133.252.252 0 0 1 .112-.035 1.027 1.027 0 0 1 .227.029.5.5 0 0 0 .171.014.064.064 0 0 0 .051-.032.066.066 0 0 0-.015-.062.348.348 0 0 0-.12-.087l.025-.056q.272.142.186.333a.2.2 0 0 1-.078.09.2.2 0 0 1-.12.026 1.432 1.432 0 0 1-.25-.067.468.468 0 0 0-.173-.031.209.209 0 0 0-.112.05.334.334 0 0 0-.089.123l-.045.1.478.217a.056.056 0 0 0 .05 0 .109.109 0 0 0 .044-.055l.053-.117.062.028-.256.565-.062-.028.054-.119a.1.1 0 0 0 .011-.065.058.058 0 0 0-.034-.038l-.972-.441a.063.063 0 0 0-.055 0 .1.1 0 0 0-.042.05l-.054.119zm.727-.117l.065-.144a.445.445 0 0 0 .048-.251.237.237 0 0 0-.157-.17.346.346 0 0 0-.166-.038.18.18 0 0 0-.113.046.675.675 0 0 0-.11.188.339.339 0 0 0-.041.126.054.054 0 0 0 .036.044zM20.944 15.252l.186-.587.065.021-.032.1a.144.144 0 0 0-.01.09q.011.023.065.04l.964.306a.076.076 0 0 0 .121-.061l.036-.113.065.021-.186.587-.065-.021.035-.111a.119.119 0 0 0 .007-.081.117.117 0 0 0-.069-.041l-.964-.306q-.055-.018-.073-.006a.152.152 0 0 0-.048.082l-.032.1zM21.49 13.5l-.115-.085.011-.056.532.078-.011.059a.867.867 0 0 0-.356.085.337.337 0 0 0-.182.237.321.321 0 0 0 .1.3.912.912 0 0 0 .479.2.743.743 0 0 0 .473-.033.344.344 0 0 0 .185-.259.382.382 0 0 0-.051-.287.535.535 0 0 0-.282-.2l.012-.063a.578.578 0 0 1 .329.229.477.477 0 0 1 .062.359.583.583 0 0 1-.14.285.6.6 0 0 1-.279.174.725.725 0 0 1-.355.017.837.837 0 0 1-.352-.155.645.645 0 0 1-.217-.266.52.52 0 0 1-.032-.3.484.484 0 0 1 .061-.159.707.707 0 0 1 .128-.16zM21.446 12.469v-.06l1.239-.431a.114.114 0 0 0 .079-.115v-.041h.068l-.021.532h-.068v-.042a.272.272 0 0 0-.013-.118.041.041 0 0 0-.038-.025.1.1 0 0 0-.033.005l-.287.1-.02.528.16.068a.314.314 0 0 0 .1.028.093.093 0 0 0 .077-.038.193.193 0 0 0 .036-.118v-.045h.068l-.019.484h-.068a.2.2 0 0 0-.029-.124.3.3 0 0 0-.125-.088zm.256.036l.585.262.013-.467z" transform="translate(-.1 -.1)"/></svg>