<svg xmlns="http://www.w3.org/2000/svg" viewBox="0 0 717.36 99.36"><defs><style>.cls-2{fill:#972021}.cls-3{fill:#333c6c}.cls-4{fill:#802f3b}.cls-10{fill:#e8e3e9}.cls-12{fill:#fff}</style></defs><g id="Layer_2" data-name="Layer 2"><g id="Layer_1-2" data-name="Layer 1"><path d="M.24 99.6V.24H717.6V99.6z" transform="translate(-.24 -.24)" fill="#fefefe"/><path class="cls-2" d="M572.7 80.77c.38-.88 0-1.72 0-2.7l1.79.39q8.92 2.06 17.94 3.68c5.43 1 10.88 1.82 16.35 2.47a163.89 163.89 0 0 0 31.59 1 85.64 85.64 0 0 0 20.2-3.79A55.6 55.6 0 0 0 686 65.35a64.63 64.63 0 0 0 10.68-17.5 98.85 98.85 0 0 0 5.6-18.39 2.57 2.57 0 0 1 .15-.46 1.09 1.09 0 0 1 .18-.22 12.32 12.32 0 0 1 2.49 2 27.25 27.25 0 0 1 6 7.59 2.22 2.22 0 0 1 .31 1.59 104.42 104.42 0 0 1-5.72 18.49 64 64 0 0 1-10.15 16.75A48.31 48.31 0 0 1 676.11 89a66.27 66.27 0 0 1-15.53 3.9 109.71 109.71 0 0 1-20 .6c-5.71-.28-11.38-.93-17-1.77-5.41-.81-10.79-1.79-16.16-2.86-7.52-1.5-15-3.22-22.42-5.05-3.76-.93-7.52-1.82-11.28-2.74-.33-.08-.63-.19-1.02-.31z" transform="translate(-.24 -.24)"/><path class="cls-2" d="M690.24 16.51a32.91 32.91 0 0 1 6.76 6.82c.6.85 1.09 1.76 1.65 2.63a3 3 0 0 1 .34 2.51 124 124 0 0 1-3.35 12 73.48 73.48 0 0 1-9 18.3 48.66 48.66 0 0 1-22.8 18.13 68.34 68.34 0 0 1-16.47 4 102.73 102.73 0 0 1-16 .61 171.4 171.4 0 0 1-19.21-1.78q-8.18-1.21-16.28-2.84c-9.16-1.82-18.25-4-27.31-6.23-2.4-.6-4.8-1.19-7.21-1.75-.51-.12-.8-.24-.71-.84a4.66 4.66 0 0 0-.19-1.86c.32-.34.64-.13.93-.06Q569.16 68 577 69.47c4.2.79 8.41 1.51 12.64 2.1 3.4.47 6.81.94 10.22 1.3s6.69.62 10 .79c4.44.22 8.87.3 13.31.14a90.83 90.83 0 0 0 25.56-4.23A55.06 55.06 0 0 0 678 47.67a73.71 73.71 0 0 0 8.29-16.8 95.44 95.44 0 0 0 3.61-13c.05-.4.18-.78.34-1.36z" transform="translate(-.24 -.24)"/><path class="cls-3" d="M360.09 21v41.97c0 1.66.19 1.47-1.46 1.48h-3.72c-.52 0-.73-.19-.68-.7v-.84-51.12c0-1.68-.22-1.46 1.45-1.47 1.12 0 2.24.05 3.36 0a2 2 0 0 1 2 1.05q8.48 12.8 17 25.54l2 2.93a2.65 2.65 0 0 0 .84-1Q390.13 25 399.3 11.25a1.83 1.83 0 0 1 1.83-1c1.4.08 2.8 0 4.2 0 .55 0 .84.14.77.74a6 6 0 0 0 0 .72v51.24c0 1.64.23 1.43-1.48 1.44h-3.84c-.5 0-.75-.15-.7-.68v-1-41.89l-.24-.09-19.7 28.92c-1.82-2.43-3.38-4.86-5-7.24s-3.29-4.82-4.94-7.23l-4.87-7.13-4.93-7.2z" transform="translate(-.24 -.24)"/><path class="cls-4" d="M213 42.25l16.49 22a2.18 2.18 0 0 1-1.14.16h-5a1.9 1.9 0 0 1-1.78-.91c-4.73-6.4-9.51-12.76-14.23-19.17a2.35 2.35 0 0 0-2.17-1.09c-4.36.06-8.72 0-13.08 0-1.11 0-1.12 0-1.12 1.11V63.31c0 1 0 1-1.06 1.05h-4.32c-.51 0-.75-.17-.71-.69v-.84-51.12c0-1.66-.2-1.48 1.46-1.48 7.92 0 15.84 0 23.76.07a20.63 20.63 0 0 1 10 2.7 14.42 14.42 0 0 1 7.68 12.72 14.56 14.56 0 0 1-4 11.19 18.24 18.24 0 0 1-8.7 4.81c-.65.2-1.27.34-2.08.53z" transform="translate(-.24 -.24)"/><path class="cls-3" d="M518.24 64.41h-6.87c-.6 0-.82-.42-1.1-.8l-6.88-9.23c-2.51-3.36-5-6.71-7.51-10.11a2.23 2.23 0 0 0-2.08-1H480.37c-.59-.05-.92.13-.84.79a5.83 5.83 0 0 1 0 .72V63.5c0 .87 0 .89-.83.89h-4.44c-.56 0-.83-.16-.76-.75a6.15 6.15 0 0 0 0-.72V11.7c0-1.66-.22-1.44 1.47-1.45h21.83a24.58 24.58 0 0 1 10.6 2.14 14.84 14.84 0 0 1 8.9 15.3c-.51 6.78-4.3 10.97-10.4 13.31a29.28 29.28 0 0 1-4.29 1.2zM421.52 37.31V11.63c0-1.49-.15-1.35 1.35-1.35H460.07c.45 0 .65.15.64.62v4.2c0 .52-.21.73-.72.69h-31.07c-1.43 0-1.31-.16-1.32 1.26V33.85c0 .24.18.49.52.48h28.44c.44 0 .65.13.65.61v4.32c0 .39-.13.6-.55.58s-.64 0-1 0h-26.72c-1.48 0-1.33-.19-1.33 1.35v17.16c0 .4.15.6.56.59h32.32c.36 0 .65.14.65.62v4.2c0 .55-.23.7-.72.66H422.7c-1.16 0-1.17 0-1.17-1.18q-.01-12.97-.01-25.93z" transform="translate(-.24 -.24)"/><path class="cls-4" d="M240.95 37.28V11.6c0-1.49-.18-1.33 1.35-1.33h36.47c1.5 0 1.3-.13 1.31 1.37v3.48c0 .44-.14.68-.62.65H248.4c-1.63 0-1.42-.13-1.42 1.39V33a4.35 4.35 0 0 1 0 .48c-.07.59.11.92.78.84a6.79 6.79 0 0 1 .84 0h27.24c.54-.05.81.11.8.72v4.08c0 .61-.25.73-.79.72h-27.38a5.71 5.71 0 0 1-.72 0c-.66-.08-.79.25-.79.84v17.4c0 .6.15.91.8.84h31.32c1.67 0 1.43 0 1.44 1.4v3.36c0 .6-.23.79-.78.74H242c-1.1 0-1 0-1-1.08V43.18q-.05-2.96-.05-5.9zM108.16 37.34v26.27c.05.56-.15.8-.74.79h-4.56c-.65 0-.86-.25-.8-.85v-.84-21.35c0-1.6.15-1.45-1.38-1.45H72c-1.37 0-1.3-.13-1.3 1.29v22.55c0 .46-.18.64-.63.64h-4.8c-.44 0-.68-.15-.65-.62v-.84V11.7c0-1.57-.18-1.43 1.38-1.44h3.84c.84 0 .85 0 .86.88v22.44c0 .48.12.77.67.72a6 6 0 0 1 .6 0h28.79c1.37 0 1.3.18 1.3-1.27V11.92v-.72c0-.9 0-.91.94-.92h4.44c.51 0 .75.16.7.69v.84q.02 12.76.02 25.53zM119 64.39c.82-1.82 1.55-3.46 2.28-5.09q11-24.18 21.9-48.37a1.49 1.49 0 0 1 1.68-1.09 29.07 29.07 0 0 0 3.6 0 1.13 1.13 0 0 1 1.25.81c1.79 4 3.61 8 5.42 12q9.18 20.25 18.35 40.5a1.94 1.94 0 0 1 .35 1.21H168c-.47 0-.58-.34-.73-.67l-2.37-5.37c-1.1-2.48-2.22-5-3.28-7.46a1.31 1.31 0 0 0-1.43-.91H132.6a1.32 1.32 0 0 0-1.42.93c-1.79 4.1-3.63 8.18-5.46 12.26-.66 1.46-.34 1.21-1.93 1.22s-3.08.03-4.79.03z" transform="translate(-.24 -.24)"/><path class="cls-3" d="M343.13 64.41h-5.69c-.58 0-.75-.33-.93-.75l-3.62-8.23c-.66-1.5-1.34-3-2-4.5a1.31 1.31 0 0 0-1.41-1h-27.71a1.24 1.24 0 0 0-1.33.88C298.67 55 296.79 59 295 63.14a1.78 1.78 0 0 1-2 1.29c-1.51-.09-3 0-4.51 0a1.39 1.39 0 0 1 .24-1l23.82-52.62a1.3 1.3 0 0 1 1.45-.94 36.6 36.6 0 0 0 3.72 0 1.2 1.2 0 0 1 1.32.87c2.17 4.85 4.38 9.68 6.57 14.52l17.2 38a2 2 0 0 1 .32 1.15z" transform="translate(-.24 -.24)"/><path class="cls-4" d="M47 20.7a29.61 29.61 0 0 0-5.53-3.56 22.07 22.07 0 0 0-13.29-2 11.11 11.11 0 0 0-6.57 3.41c-2.71 2.92-2.88 9.12 1.35 11.84a26.31 26.31 0 0 0 7.16 3c3.11.89 6.32 1.38 9.4 2.38a26.07 26.07 0 0 1 7.63 3.66A11.49 11.49 0 0 1 52 47.14c.77 5.23-.47 9.85-4.5 13.49a16.67 16.67 0 0 1-7.85 3.92 30.52 30.52 0 0 1-23.09-4.16 32.49 32.49 0 0 1-5-3.81l3.69-4.38c.73.6 1.4 1.17 2.08 1.71a25 25 0 0 0 11.57 5.47A21.46 21.46 0 0 0 39.2 59a9.42 9.42 0 0 0 6.3-5.46 8 8 0 0 0-3.62-10.29 31.29 31.29 0 0 0-8.58-2.95 57.72 57.72 0 0 1-10.66-3.1 21.15 21.15 0 0 1-3.86-2.2 12 12 0 0 1-5.09-9.35c-.56-7.47 3.93-12.6 9.93-14.88a22.42 22.42 0 0 1 8.1-1.4 28.46 28.46 0 0 1 17.68 5.81c.19.15.37.3.57.43.41.26.52.53.18 1-1.03 1.28-2.03 2.63-3.15 4.09z" transform="translate(-.24 -.24)"/><path class="cls-3" d="M604.83 63.93c1.17-2.14 2.08-4.4 3.09-6.62Q618.47 34.07 629 10.8a1.29 1.29 0 0 1 1.42-.94c1.24.06 2.48.06 3.72 0a1.21 1.21 0 0 1 1.35.86c2.23 5 4.5 10 6.76 15L652.8 49c.15.33.33.64.5 1 .17 0 .27.14.21.33-1.43 1-2.81 2.11-4.31 3-.22.13-.4.41-.73.29a1 1 0 0 1-.33-.25 5.89 5.89 0 0 1-.78-1.62 2.17 2.17 0 0 0-2.36-1.51h-23.15c-.88 0-1.76.05-2.64 0a2.09 2.09 0 0 0-2.28 1.5c-1.79 4.1-3.65 8.17-5.46 12.27a1.67 1.67 0 0 1-1.47.87 42.57 42.57 0 0 1-4.3 0c-.53-.03-1.23-.07-.87-.95z" transform="translate(-.24 -.24)"/><path class="cls-2" d="M653.5 50.33l-.2-.33a7.66 7.66 0 0 0 2-1.51 59.23 59.23 0 0 0 13.22-17.16 94.84 94.84 0 0 0 8.31-24.24c0-.11.07-.21.11-.34.13 0 .27 0 .35.07a29.05 29.05 0 0 1 8.27 9.64 2.26 2.26 0 0 1 .22 1.59c-2.06 9.44-5 18.53-9.95 26.91a51 51 0 0 1-15.49 16.89c-.22.15-.42.37-.74.37a2.26 2.26 0 0 1-.61-1c-1.6-3.26-3.19-6.53-4.8-9.79-.19-.43-.28-.84-.69-1.1z" transform="translate(-.24 -.24)"/><path class="cls-3" d="M558.44 58.4c-.59-.65-1.18-1.3-1.76-2a27.78 27.78 0 0 1-6.89-16.77 28.39 28.39 0 0 1 4.95-18.75 25.82 25.82 0 0 1 18.68-11.3 28.6 28.6 0 0 1 18.4 3.42 32.56 32.56 0 0 1 6.31 4.85 34.56 34.56 0 0 1-2.8 3.12c-.39.43-.72 1.17-1.28 1.14s-.87-.63-1.29-1a23.8 23.8 0 0 0-11.27-5.78c-11.32-2.13-21.57 4.06-24.57 15.17-2.15 7.94-1 15.43 4.34 21.93a19.76 19.76 0 0 0 15.5 7.38c6.55.17 12-2.39 16.66-6.73 1.14-1.06 1.14-1.05 2.26.05.74.73 1.49 1.45 2.22 2.19.58.58.58.6 0 1.21a32.55 32.55 0 0 1-7.63 5.76 4.07 4.07 0 0 0-1.3.83.26.26 0 0 1-.3 0 1.16 1.16 0 0 0-.8-.19c-7-.08-13.73-1.43-20.5-2.83-2.62-.54-5.24-1.06-7.87-1.59a.56.56 0 0 0-.7.08.25.25 0 0 1-.36-.19z" transform="translate(-.24 -.24)"/><path class="cls-2" d="M588.65 63.14h.3c1.43.15 2.85.34 4.28.43 3.86.25 7.73.4 11.6.39-.07.39.07.6.49.6h5c.55 0 .71-.42 1-.73a4.75 4.75 0 0 1 2.31-.52 87.08 87.08 0 0 0 19.08-3.12 63.67 63.67 0 0 0 14.59-6.23c.36-.21.7-.7 1.22-.29a1.94 1.94 0 0 0 .31 1c1.37 2.88 2.75 5.76 4.11 8.65.41.86.71 1.8 2 1.59a28.25 28.25 0 0 1-4.58 2.09 73 73 0 0 1-23.16 4.5 138.79 138.79 0 0 1-21.06-.8c-7-.75-13.93-1.85-20.82-3.22l-9-1.81c.09-.61.55-.23.83-.29s.87.06 1.29-.1a28.86 28.86 0 0 0 10.21-2.14z" transform="translate(-.24 -.24)"/><path class="cls-3" d="M536.17 37.32v25.8c0 1.4.16 1.29-1.28 1.29h-4c-.65 0-.86-.23-.79-.84a5.15 5.15 0 0 0 0-.6V11.74c0-1.67-.22-1.45 1.46-1.47h3.84c.6 0 .79.21.73.77a8.39 8.39 0 0 0 0 .84q.04 12.72.04 25.44z" transform="translate(-.24 -.24)"/><path d="M558.44 58.4l.22.13q.19-.15.29.07a24.27 24.27 0 0 0 6.47 4.3q.12.07.09.15t-.08.08a27.59 27.59 0 0 1-3.85-.83c-4.69-1.14-9.37-2.31-14.06-3.47a1.56 1.56 0 0 1-.26-.13 4.94 4.94 0 0 0-.2-2.46 2 2 0 0 1 1.32 0l9.11 2c.31.12.64.12.95.16z" transform="translate(-.24 -.24)" fill="#972122"/><path d="M578.42 65.32c-.35.25-.75.14-1.13.18s-.71-.07-1 .21l-1.48-.22c-.09 0-.12-.08-.09-.12s.06-.06.09-.06a27.41 27.41 0 0 1 3.61.01z" transform="translate(-.24 -.24)" fill="#b68b96"/><path d="M567.36 63.84a5.26 5.26 0 0 1-1.46-.43c0-.16.16-.18.25-.27l1.21.47a.15.15 0 0 1 .05.15q-.03.08-.05.08z" transform="translate(-.24 -.24)" fill="#d2c9d1"/><path d="M566.14 63.14l-.25.27c-.18 0-.38-.06-.47-.27a1.41 1.41 0 0 1 0-.23z" transform="translate(-.24 -.24)" fill="#ad7982"/><path d="M558.95 58.61l-.29-.07a.51.51 0 0 1 .82 0z" transform="translate(-.24 -.24)" fill="#88b5c7"/><path class="cls-10" d="M568.16 64s-.05.05-.08 0-.08 0-.08-.09a.1.1 0 0 1 .09 0s.05.04.07.09z" transform="translate(-.24 -.24)"/><path d="M574.81 65.31a.66.66 0 0 0 0 .18c-.12 0-.29.09-.3-.13a2.24 2.24 0 0 1 .3-.05z" transform="translate(-.24 -.24)" fill="#c8b3b9"/><path class="cls-10" d="M567.36 63.84a1.45 1.45 0 0 0 0-.23c.17.07.18.15 0 .23z" transform="translate(-.24 -.24)"/><path class="cls-12" d="M191 26.86V16.78c0-.92 0-.93.9-.94h17a17 17 0 0 1 6.76 1.43 9.81 9.81 0 0 1 6 10c-.28 4.86-3.46 8.46-8.68 9.89a20 20 0 0 1-5.22.67h-16.08c-.51 0-.73-.17-.71-.69s0-1.28 0-1.92q.03-4.16.03-8.36zM479.54 26.85V16.78c0-.9 0-.92.93-.92h16.91a17.77 17.77 0 0 1 5.87 1c4.31 1.53 6.81 4.75 7 8.94.2 4.84-2 8.47-6.17 10.43a17.52 17.52 0 0 1-7.32 1.58h-16.19c-1 0-1 0-1-1.08q-.04-4.91-.03-9.88zM158.63 44.56H134c1.24-3.2 2.73-6.17 4.06-9.21s2.72-6 4.08-9.06l4.15-9.18c.66.89 12.01 26.16 12.34 27.45zM303.26 44.54l12.45-27.65L328 44.39c-.95.28-20.94.39-24.74.15zM648.48 53.65l-3.24 1.77a66.29 66.29 0 0 1-19.36 6.7 104.36 104.36 0 0 1-14.61 1.69 2.15 2.15 0 0 1 .33-1c1.75-3.94 3.54-7.87 5.26-11.83a1.4 1.4 0 0 1 1.53-1h27.47a1.32 1.32 0 0 1 1.5 1c.32.92.75 1.79 1.12 2.67zM619.71 44.53L632 17.27H632.29q6 13.43 12.08 26.86a.89.89 0 0 1 0 .34c-.98.15-22.64.2-24.66.06z" transform="translate(-.24 -.24)"/></g></g></svg>