<svg xmlns="http://www.w3.org/2000/svg" xmlns:xlink="http://www.w3.org/1999/xlink" viewBox="0 0 233.8 34.1"><style>.st0{fill:#ba202e}.st1{clip-path:url(#SVGID_2_);fill:#2f78aa}.st2{fill:#ffcd05}.st3,.st4{fill:#2f78aa}.st4{clip-path:url(#SVGID_4_)}</style><switch><g id="logo"><path class="st0" d="M96.3 33.1c.1.3 0 .5-.3.5H85c-.3 0-.6-.2-.8-.5L69 1.1c-.1-.3 0-.5.3-.5h11c.3 0 .6.2.8.5l15.2 32zM51.8 25.8H38.2L49.9 1.2c.2-.3 0-.6-.4-.6H38.9c-.4 0-.8.3-1 .6L22.8 32.9c-.2.3 0 .6.4.6h26.2c.4 0 .8-.3 1-.6l2.2-4.8 1.1-2.3h-1.9z"/><defs><path id="SVGID_1_" d="M.5.6h232.7v32.9H.5z"/></defs><clipPath id="SVGID_2_"><use xlink:href="#SVGID_1_" overflow="visible"/></clipPath><path class="st1" d="M7.5 33.1c-.1.3 0 .5.3.5h10.8c.3 0 .6-.2.8-.5l15.5-32c.1-.3 0-.5-.3-.5h-11c-.3 0-.6.2-.8.5l-15.3 32zM15.9 8.2l-3.3-7c-.2-.3-.6-.6-1-.6H.9C.5.6.4.9.5 1.2L8 16.8l3 6.4 6-12.7-1.1-2.3z"/><path class="st2" d="M80.1 32.2l-2.3-4.7-8.5-18-3.5-7.4c-.3-.6-1-1.1-1.7-1.1H54.8h-.1c-.9 0-1.7.5-2 1.2l-3 6.4-7.6 16h11.8l-5.3-3.7h7.2l3.5-7.4 1.4 3s0 .1.1.1l2 4.2h7.3l-5.5 3.8 1 2 2.7 5.6c.3.7 1.2 1.2 1.9 1.2h9.2c.7 0 1-.5.7-1.2z"/><path class="st3" d="M96.3 33.1c.1.3 0 .5-.3.5H85c-.3 0-.6-.2-.8-.5L69 1.1c-.1-.3 0-.5.3-.5h11c.3 0 .6.2.8.5l15.2 32z"/><path class="st0" d="M51.8 25.8H38.2L49.9 1.2c.2-.3 0-.6-.4-.6H38.9c-.4 0-.8.3-1 .6L22.8 32.9c-.2.3 0 .6.4.6h26.2c.4 0 .8-.3 1-.6l2.2-4.8 1.1-2.3h-1.9z"/><defs><path id="SVGID_3_" d="M.5.6h232.7v32.9H.5z"/></defs><clipPath id="SVGID_4_"><use xlink:href="#SVGID_3_" overflow="visible"/></clipPath><path class="st4" d="M7.5 33.1c-.1.3 0 .5.3.5h10.8c.3 0 .6-.2.8-.5l15.5-32c.1-.3 0-.5-.3-.5h-11c-.3 0-.6.2-.8.5l-15.3 32zM15.9 8.2l-3.3-7c-.2-.3-.6-.6-1-.6H.9C.5.6.4.9.5 1.2L8 16.8l3 6.4 6-12.7-1.1-2.3z"/><path class="st2" d="M80.1 32.2l-2.3-4.7-8.5-18-3.5-7.4c-.3-.6-1-1.1-1.7-1.1H54.8h-.1c-.9 0-1.7.5-2 1.2l-3 6.4-7.6 16h11.8l-5.3-3.7h7.2l3.5-7.4 1.4 3s0 .1.1.1l2 4.2h7.3l-5.5 3.8 1 2 2.7 5.6c.3.7 1.2 1.2 1.9 1.2h9.2c.7 0 1-.5.7-1.2z"/><path class="st3" d="M92.1 9.3l-3.7-6.8h1.9l2.6 5.4 2.9-5.4h1.7l-3.8 6.8v3.9h-1.6V9.3zM103.3 9.1c0-1.5-.4-3.1-2.3-3.1-1.8 0-2.3 1.6-2.3 3.1 0 1.6.6 3 2.3 3 1.9 0 2.3-1.4 2.3-3zm-6.2.1c0-2.8 1.6-4.4 3.9-4.4 2.6 0 3.8 1.6 3.8 4.3 0 2.9-1.7 4.3-3.9 4.3-2.3 0-3.8-1.6-3.8-4.2zM106.6 10.2V5h1.6v5c0 1.3.1 2 1.5 2 1 0 2-.6 2.4-.8V5h1.6v8.3h-1.6v-.9c-.6.4-1.6 1.1-2.9 1.1-2.4-.1-2.6-1.8-2.6-3.3zM115.9 5h1.6v.9c.7-.5 1.6-1.1 2.8-1.1 2.5 0 2.6 1.6 2.6 3.2v5.3h-1.6v-5c0-1.3-.2-2-1.5-2-.9 0-1.8.5-2.4.9v6.2h-1.6V5h.1zM130.2 11.5V6.2c-.4-.1-.8-.2-1.4-.2-1.8 0-2.5 1.3-2.5 3.1 0 2.1.8 2.9 2.4 2.9.5.1 1.1-.2 1.5-.5zm-5 4.8l.3-1.3c.5.1 1.7.3 2.3.3 1.3 0 2.3-.2 2.3-1.9v-.6c-.5.4-1 .6-1.7.6-1.8 0-3.8-.5-3.8-4.2 0-2.9 1.9-4.4 4.1-4.4 1.1 0 2 .2 3 .3v8.5c0 2.1-1.7 3-3.6 3-1.2 0-2.3-.2-2.9-.3zM137.3 2.5h1.7v9.4h4.6v1.3h-6.3V2.5zM149.5 8.4c0-1.5-.5-2.5-1.7-2.5-1.1 0-1.9.8-2.1 2.5h3.8zm-5.3.8c0-3.3 1.7-4.5 3.9-4.5s3.2 1.5 3.2 4.2v.6h-5.4c0 2.3 1.2 2.6 2.8 2.6.6 0 1.6-.2 2.1-.3l.2 1.2c-.5.2-1.5.4-2.7.4-2.5 0-4.1-1-4.1-4.2zM157.3 11.4V9.5l-1.8.1c-1.1 0-1.8.5-1.8 1.3 0 .9.5 1.3 1.3 1.3.9-.1 1.9-.7 2.3-.8zm-5.1-.4c0-2 1.8-2.5 3.3-2.5h1.8v-1c0-1.1-.6-1.4-1.9-1.4-.8 0-1.7.3-2.2.4l-.3-1.2c.5-.2 1.6-.5 2.8-.5 2 0 3.1.6 3.1 2.3v4.3c0 .5.4.6.8.6l-.1 1.2h-.3c-.8 0-1.6-.3-1.8-1-.5.3-1.3 1-2.7 1-1.6.1-2.5-.7-2.5-2.2zM166.4 11.3v-5c-.3-.2-.7-.3-1.4-.3-1.8 0-2.5 1.5-2.5 3.1 0 2.1.9 2.9 2.2 2.9.6 0 1.4-.5 1.7-.7zm-5.5-2.2c0-2.9 1.8-4.3 4.1-4.3.7 0 1 0 1.5.2V1.8h1.6v11.4h-1.6v-.7c-.4.4-1.1.9-2 .9-1.6 0-3.6-.7-3.6-4.3zM175.1 8.4c0-1.5-.5-2.5-1.7-2.5-1.1 0-1.9.8-2.1 2.5h3.8zm-5.3.8c0-3.3 1.7-4.5 3.9-4.5s3.2 1.5 3.2 4.2v.6h-5.4c0 2.3 1.2 2.6 2.8 2.6.6 0 1.6-.2 2.1-.3l.3 1.3c-.5.2-1.5.4-2.7.4-2.7-.1-4.2-1.1-4.2-4.3zM178.4 5h1.6v1.1c.4-.6 1.2-1.3 2.3-1.3.5 0 .8.1 1 .1l-.2 1.3c-.3-.1-.5-.1-1-.1-.9 0-1.7.6-2.1 1.1v5.9h-1.6V5zM183.7 13l.2-1.2c.7.1 1.5.3 2.2.3 1.3 0 1.9-.5 1.9-1.1 0-1.6-4.2-1-4.2-3.9 0-1.6 1.3-2.4 3-2.4.9 0 1.8.2 2.2.4l-.3 1.2c-.5-.1-1.1-.3-2-.3-1 0-1.4.5-1.4 1 0 1.6 4.1 1.2 4.1 3.9 0 2-1.9 2.5-3.3 2.5-1 0-1.9-.2-2.4-.4zM199.9 9.1c0-1.5-.4-3.1-2.3-3.1-1.8 0-2.3 1.6-2.3 3.1 0 1.6.6 3 2.3 3 1.8 0 2.3-1.4 2.3-3zm-6.2.1c0-2.8 1.6-4.4 3.9-4.4 2.6 0 3.8 1.6 3.8 4.3 0 2.9-1.7 4.3-3.9 4.3-2.4 0-3.8-1.6-3.8-4.2zM203.3 6.2h-1.2V5h1.2v-.7c0-2.2 1.3-2.9 2.8-2.9.6 0 1 .1 1.3.2l-.3 1.3c-.2 0-.5-.1-1-.1-.9 0-1.3.5-1.3 1.5V5h1.8v1.2h-1.8v10.2h-1.6V6.2h.1zM211.6 10.8V6.2h-1.2V5h1.2V3.3h1.6V5h2.6v1.3h-2.6v4.6c0 1 .3 1.2 1.4 1.2.5 0 1.3-.2 1.4-.2l.2 1.3c-.4.1-1.1.3-1.6.3-1.6-.1-3-.1-3-2.7zM217.5 1.8h1.6v4c.6-.4 1.6-1.1 2.8-1.1 2.5 0 2.6 1.6 2.6 3.2v5.3H223v-5c0-1.3-.2-2-1.5-2-.9 0-2 .6-2.4.9v6.2h-1.6V1.8zM231.6 8.4c0-1.5-.5-2.5-1.7-2.5-1.1 0-1.9.8-2.1 2.5h3.8zm-5.4.8c0-3.3 1.7-4.5 3.9-4.5s3.2 1.5 3.2 4.2v.6h-5.4c0 2.3 1.2 2.6 2.8 2.6.6 0 1.6-.2 2.1-.3l.2 1.2c-.5.2-1.5.4-2.7.4-2.5 0-4.1-1-4.1-4.2zM110 26.3l-1.5-4.6-1.7 4.6h3.2zm-2.5-5.7h2.2l3.8 10.7h-1.7l-1.3-3.7h-4l-1.5 3.7h-1.6l4.1-10.7zM114.6 23h1.6v.9c.7-.5 1.7-1.1 2.7-1.1 1.3 0 2 .5 2.3 1.2.6-.5 1.7-1.2 2.9-1.2 2.5 0 2.6 1.8 2.6 3.2v5.3H125v-5c0-1.2-.2-2-1.5-2-.8 0-1.6.4-2.3.8.1.3.1.6.1.9v5.3h-1.6v-5c0-1.2-.2-2-1.5-2-.7 0-1.6.5-2.2.9v6.2h-1.6V23h.2zM133.6 26.4c0-1.5-.5-2.5-1.7-2.5-1.1 0-1.9.8-2.1 2.5h3.8zm-5.3.9c0-3.3 1.7-4.5 3.9-4.5s3.2 1.5 3.2 4.2v.6H130c0 2.3 1.2 2.6 2.8 2.6.6 0 1.6-.2 2.1-.3l.3 1.3c-.5.2-1.5.4-2.7.4-2.6-.2-4.2-1.1-4.2-4.3zM137 23h1.6v1.1c.4-.6 1.2-1.3 2.3-1.3.5 0 .8.1 1 .1l-.2 1.3c-.3-.1-.5-.1-1-.1-.9 0-1.7.6-2.1 1.1v5.9H137V23zM142.8 23h1.6v8.3h-1.6V23zm-.4-2.6l1.2-1.2 1.2 1.2-1.2 1.2-1.2-1.2zM146.1 27.1c0-2.6 1.6-4.3 4.1-4.3 1.1 0 1.9.2 2.4.5l-.5 1.2c-.5-.2-1-.4-1.9-.4-1.4 0-2.4 1-2.4 3 0 2.1.6 3 2.9 3 .7 0 1.2-.2 1.6-.2l.2 1.2c-.5.1-1.1.3-2 .3-3.1 0-4.4-1.3-4.4-4.3zM158.5 29.4v-1.9l-1.8.1c-1.1 0-1.8.5-1.8 1.3 0 .9.5 1.3 1.3 1.3.9-.1 1.9-.7 2.3-.8zm-5.1-.4c0-2 1.8-2.5 3.3-2.5h1.8v-.9c0-1.1-.6-1.4-1.9-1.4-.8 0-1.7.3-2.2.4l-.3-1.2c.5-.2 1.6-.5 2.8-.5 2 0 3.1.6 3.1 2.3v4.3c0 .5.4.6.8.6l-.1 1.2h-.3c-.8 0-1.6-.3-1.8-1-.5.3-1.3 1-2.7 1-1.6.1-2.5-.7-2.5-2.3zM162 31.1l.2-1.2c.7.1 1.5.3 2.2.3 1.3 0 1.9-.5 1.9-1.1 0-1.6-4.2-1-4.2-3.9 0-1.6 1.3-2.4 3-2.4.9 0 1.8.2 2.2.4l-.3 1.2c-.5-.1-1.1-.3-2-.3-1 0-1.4.5-1.4 1 0 1.6 4.1 1.2 4.1 3.9 0 2-1.9 2.5-3.3 2.5-.9-.1-1.8-.3-2.4-.4zM172.8 20.6h1.7v10.6h-1.7V20.6zM177 23h1.6v.9c.7-.5 1.6-1.1 2.8-1.1 2.5 0 2.6 1.6 2.6 3.2v5.3h-1.6v-5c0-1.3-.2-2-1.5-2-.9 0-1.8.5-2.4.9v6.2H177V23zM186.2 23h1.6v8.3h-1.6V23zm-.4-2.6l1.2-1.2 1.2 1.2-1.2 1.2-1.2-1.2zM190.4 28.9v-4.6h-1.2V23h1.2v-1.7h1.6V23h2.6v1.3H192v4.6c0 1 .3 1.2 1.4 1.2.5 0 1.3-.2 1.4-.2l.2 1.3c-.4.1-1.1.3-1.6.3-1.6-.1-3-.1-3-2.6zM196.3 23h1.6v8.3h-1.6V23zm-.4-2.6l1.2-1.2 1.2 1.2-1.2 1.2-1.2-1.2zM204.6 29.4v-1.9l-1.8.1c-1.1 0-1.8.5-1.8 1.3 0 .9.5 1.3 1.3 1.3 1-.1 2-.7 2.3-.8zm-5.1-.4c0-2 1.8-2.5 3.3-2.5h1.8v-.9c0-1.1-.6-1.4-1.9-1.4-.8 0-1.7.3-2.2.4l-.3-1.2c.5-.2 1.6-.5 2.8-.5 2 0 3.1.6 3.1 2.3v4.3c0 .5.4.6.8.6l-.1 1.2h-.3c-.8 0-1.6-.3-1.8-1-.5.3-1.3 1-2.7 1-1.5.1-2.5-.7-2.5-2.3zM209.1 28.9v-4.6h-1.2V23h1.2v-1.7h1.6V23h2.6v1.3h-2.6v4.6c0 1 .3 1.2 1.4 1.2.5 0 1.3-.2 1.4-.2l.2 1.3c-.4.1-1.1.3-1.6.3-1.6-.1-3-.1-3-2.6zM215 23h1.6v8.3H215V23zm-.4-2.6l1.2-1.2 1.2 1.2-1.2 1.2-1.2-1.2zM217.8 23h1.7l1.6 5.3.5 1.7.6-1.7L224 23h1.7l-3.1 8.2h-2l-2.8-8.2zM231.6 26.4c0-1.5-.5-2.5-1.7-2.5-1.1 0-1.9.8-2.1 2.5h3.8zm-5.4.9c0-3.3 1.7-4.5 3.9-4.5s3.2 1.5 3.2 4.2v.6h-5.4c0 2.3 1.2 2.6 2.8 2.6.6 0 1.6-.2 2.1-.3l.2 1.1c-.5.2-1.5.4-2.7.4-2.5 0-4.1-.9-4.1-4.1z"/></g></switch></svg>